<?xml version="1.0" standalone="no"?>
<!DOCTYPE svg PUBLIC "-//W3C//DTD SVG 20010904//EN"
 "http://www.w3.org/TR/2001/REC-SVG-20010904/DTD/svg10.dtd">
<svg version="1.0" xmlns="http://www.w3.org/2000/svg"
 width="800.000000pt" height="800.000000pt" viewBox="0 0 800.000000 800.000000"
 preserveAspectRatio="xMidYMid meet">
<metadata>
Created by potrace 1.14, written by Peter Selinger 2001-2017
</metadata>
<g transform="translate(0.000000,800.000000) scale(0.100000,-0.100000)"
fill="#000000" stroke="none">
<path d="M1 5623 c0 -1308 3 -2372 6 -2365 9 24 21 11 21 -24 0 -21 -6 -38
-14 -41 -12 -4 -14 -242 -14 -1599 l0 -1594 1710 0 1709 0 -26 26 c-24 24 -25
28 -10 39 12 9 14 14 5 23 -9 9 -8 12 4 12 11 0 16 -7 13 -19 -2 -11 3 -25 11
-32 12 -10 12 -14 2 -20 -10 -7 -10 -9 0 -9 7 0 17 10 22 23 9 20 10 19 7 -9
l-3 -31 76 -2 c92 -2 110 4 110 35 0 13 5 24 11 24 6 0 10 -10 9 -22 -3 -37 2
-45 9 -14 3 16 12 31 20 34 8 3 11 0 7 -7 -4 -6 -5 -11 -2 -11 3 0 12 15 20
33 l14 32 1 -32 c1 -26 -4 -34 -22 -38 -22 -6 -34 -35 -15 -35 4 0 8 5 8 10 0
7 6 7 19 0 32 -17 51 -12 52 13 0 21 1 21 10 -3 8 -20 12 -22 19 -10 7 10 10
11 10 3 0 -10 95 -13 440 -13 412 0 440 1 440 18 0 15 2 15 10 2 8 -11 9 -9 5
10 -7 30 67 254 80 243 4 -4 5 1 1 12 -5 13 -4 17 3 10 5 -6 11 -27 13 -48 2
-33 5 -37 30 -37 20 0 26 -4 22 -15 -4 -9 0 -15 10 -15 20 0 21 -14 1 -33 -8
-8 -11 -17 -8 -21 12 -11 21 -6 28 17 l7 22 8 -25 c5 -17 8 -19 9 -7 1 17 31
25 31 8 0 -6 9 -9 20 -8 11 1 20 1 20 2 0 0 4 15 10 33 8 29 7 32 -5 22 -10
-8 -15 -9 -15 -2 0 6 10 18 23 27 20 14 56 112 37 100 -5 -3 -11 -23 -15 -44
-4 -22 -13 -42 -22 -45 -11 -4 -13 -2 -9 9 3 8 9 22 12 30 4 9 1 15 -7 15 -9
0 -8 4 3 12 9 7 19 29 22 48 l5 35 -11 -32 c-12 -37 -24 -43 -24 -13 0 11 3
20 7 20 4 0 10 10 13 23 6 21 8 19 31 -18 14 -22 25 -55 25 -73 0 -38 20 -64
40 -52 20 12 7 100 -24 159 -14 28 -26 54 -26 58 -1 5 -9 17 -19 28 -9 12 -15
27 -13 34 3 9 0 11 -8 6 -8 -5 -11 -4 -7 2 4 6 0 16 -8 23 -8 7 -15 19 -15 27
0 8 -4 12 -9 8 -5 -3 -13 4 -16 16 -10 30 -144 159 -166 159 -5 0 -9 5 -9 11
0 5 -4 8 -9 4 -5 -3 -12 -1 -16 5 -4 6 -11 8 -16 5 -5 -4 -9 -2 -9 4 0 6 -11
13 -25 17 -14 3 -25 10 -25 16 0 5 -4 7 -9 3 -5 -3 -13 0 -16 6 -4 5 -13 8
-21 5 -8 -3 -14 -1 -14 4 0 17 5 25 13 22 5 -1 6 2 2 8 -4 6 -13 5 -25 -2 -23
-14 -41 -2 -20 13 12 9 12 10 -3 5 -9 -3 -24 -9 -32 -12 -8 -3 -15 -2 -15 4 0
5 -8 9 -17 8 -11 0 -17 6 -17 16 1 14 -2 15 -16 8 -31 -16 -37 -11 -11 10 18
15 19 20 7 20 -9 0 -16 -4 -16 -9 0 -13 -32 -23 -39 -13 -3 5 -13 9 -21 10 -8
0 -34 4 -57 7 -24 3 -44 1 -48 -5 -3 -5 -14 -10 -23 -9 -11 0 -9 4 8 10 13 6
20 13 15 17 -6 4 -11 12 -12 17 -1 10 12 13 59 16 9 0 22 8 29 17 11 14 11 15
-1 5 -21 -19 -32 -15 -18 6 7 11 16 17 22 14 5 -3 6 -1 3 4 -4 6 3 19 14 29
21 18 21 18 39 -4 26 -32 32 -27 12 9 -13 24 -14 33 -4 36 6 3 12 12 12 21 1
15 3 14 16 -3 15 -19 15 -19 8 10 -7 28 -6 29 11 15 17 -14 17 -13 10 9 -5 16
-4 21 4 17 6 -4 11 0 11 9 0 9 5 13 10 10 6 -3 10 3 10 14 0 12 4 21 8 21 5 0
14 11 20 25 6 14 17 25 23 25 8 0 7 -6 -2 -17 -13 -15 -11 -15 13 1 26 17 27
17 42 -11 21 -39 19 -16 -3 30 -16 35 -37 43 -24 10 4 -10 2 -14 -6 -12 -17 6
-17 9 7 47 11 20 23 29 26 23 4 -6 12 -11 18 -11 6 0 6 6 -2 15 -21 25 -4 28
19 4 12 -13 21 -18 21 -12 0 5 -9 18 -20 28 -11 10 -18 21 -15 23 3 3 16 -5
29 -17 23 -22 25 -22 55 -7 17 9 31 19 31 21 0 6 -32 -6 -47 -18 -9 -6 -19 -2
-33 14 -24 30 -26 46 -2 28 9 -8 19 -17 22 -20 3 -3 19 2 35 12 32 20 27 26
-6 8 -16 -8 -25 -7 -40 7 -22 20 -17 33 6 14 12 -10 21 -8 47 9 18 11 28 21
22 21 -5 0 -19 -7 -30 -15 -25 -19 -31 -18 -38 1 -4 11 -2 15 8 11 7 -3 30 6
50 19 49 33 46 40 -4 9 -22 -14 -40 -21 -40 -15 0 5 4 10 10 10 5 0 7 6 4 14
-3 8 0 17 7 22 9 5 10 2 6 -10 -6 -15 -2 -14 23 4 16 12 36 18 42 14 10 -5 10
-4 1 6 -10 11 -15 11 -28 0 -13 -11 -18 -11 -28 0 -7 7 -7 10 -2 8 6 -3 15 0
22 7 10 11 10 15 0 18 -8 4 -6 6 4 6 8 1 20 -4 27 -11 18 -18 14 3 -5 24 -18
20 -5 25 17 5 11 -9 11 -8 0 7 -12 15 -12 20 -2 24 10 3 10 7 1 18 -10 12 -9
13 5 8 9 -3 16 -1 16 5 0 6 -5 11 -12 11 -6 0 -8 3 -5 6 4 4 13 2 21 -5 11 -9
22 -7 50 10 20 11 36 16 36 10 0 -6 -13 -17 -29 -26 -17 -8 -33 -20 -36 -26
-4 -6 7 -3 24 5 17 9 31 13 31 8 0 -5 -11 -15 -25 -22 -14 -7 -25 -17 -25 -22
0 -5 9 -4 21 2 11 7 23 9 26 7 3 -3 -9 -13 -26 -22 -38 -19 -40 -29 -3 -21 24
5 25 4 8 -7 -10 -6 -28 -20 -40 -30 l-21 -18 23 11 c36 18 39 3 3 -17 -40 -23
-41 -39 -1 -18 17 9 30 12 30 7 0 -5 -11 -14 -25 -20 -14 -6 -25 -16 -25 -22
0 -7 7 -7 21 0 40 22 30 2 -10 -21 -23 -12 -41 -27 -41 -31 0 -5 10 -2 22 6
12 9 27 16 33 16 15 -1 -35 -40 -51 -40 -8 0 -14 -4 -14 -10 0 -6 9 -6 26 0
38 15 51 12 57 -10 3 -11 13 -20 22 -20 14 0 13 -4 -6 -21 l-24 -21 25 6 25 5
-25 -19 c-30 -24 -35 -24 -53 -5 -8 8 -17 11 -21 8 -8 -9 -8 -23 2 -22 27 5
34 -1 21 -18 -13 -16 -13 -16 11 0 13 9 36 17 50 16 22 0 20 -2 -12 -16 -21
-8 -38 -19 -38 -24 0 -6 9 -5 20 1 14 8 25 7 39 -2 15 -9 23 -9 35 2 14 11 16
10 10 -4 -3 -9 -17 -19 -30 -22 -13 -3 -24 -11 -24 -16 0 -6 7 -7 15 -4 43 17
47 15 21 -8 -31 -25 -46 -26 -46 -1 0 9 -6 12 -15 9 -21 -8 -19 -21 5 -34 15
-8 27 -7 51 5 48 25 46 10 -3 -19 -24 -14 -35 -26 -26 -26 9 0 19 4 23 9 3 6
15 9 26 8 20 -1 21 -9 4 -50 -6 -13 -3 -16 9 -11 9 3 13 10 10 15 -7 12 14 39
30 39 6 0 3 -7 -6 -14 -23 -17 -23 -30 -1 -22 15 6 15 4 -2 -14 -10 -11 -26
-20 -37 -20 -10 0 -18 -4 -18 -9 0 -12 38 -5 56 10 9 7 14 8 14 1 0 -5 -15
-20 -32 -32 -18 -12 -25 -19 -16 -16 10 3 26 9 35 12 10 3 2 -8 -17 -25 -19
-17 -39 -31 -44 -31 -18 0 -85 -35 -86 -43 0 -5 16 0 35 12 23 13 35 16 35 8
0 -8 3 -9 8 -1 4 6 14 13 22 17 8 4 25 14 38 23 20 15 22 15 22 0 0 -10 -4
-15 -9 -12 -5 3 -14 -1 -21 -9 -7 -8 -18 -15 -24 -15 -10 0 -27 -30 -40 -75
-4 -11 -25 -28 -47 -39 -22 -10 -38 -20 -36 -23 8 -7 85 35 90 49 4 10 6 10 6
-1 1 -9 5 -10 14 -4 22 16 69 34 62 23 -8 -13 -67 -45 -77 -42 -5 1 -8 -3 -8
-9 0 -5 -3 -8 -7 -6 -5 3 -24 -6 -43 -20 -32 -23 -29 -25 15 -7 24 10 17 -12
-7 -24 l-23 -11 22 0 c13 -1 27 8 34 22 13 25 49 57 64 57 6 -1 -6 -14 -25
-30 -35 -30 -31 -43 6 -15 29 22 40 18 14 -5 -13 -11 -31 -20 -40 -20 -10 0
-21 -7 -24 -16 -3 -9 -11 -12 -18 -8 -7 4 -3 -3 9 -14 13 -13 29 -19 37 -16 9
3 16 1 16 -5 0 -6 -4 -11 -10 -11 -5 0 -10 -5 -10 -11 0 -6 7 -9 14 -6 9 4 13
1 10 -6 -2 -7 2 -21 10 -32 12 -16 16 -17 30 -6 18 16 22 1 4 -17 -9 -9 -9
-12 1 -12 7 0 9 -5 6 -10 -4 -6 -11 -8 -16 -5 -5 3 -6 -1 -3 -9 3 -9 9 -15 12
-14 20 2 25 -3 12 -12 -10 -6 -11 -10 -2 -10 6 0 12 -5 12 -11 0 -7 8 -18 18
-26 9 -8 11 -12 5 -8 -18 8 -16 -3 2 -21 8 -8 20 -34 26 -57 6 -23 17 -49 24
-57 8 -10 12 -42 11 -88 -1 -70 0 -72 12 -41 7 17 10 39 7 47 -3 8 0 19 7 24
11 6 10 8 0 8 -7 0 -11 4 -7 9 3 6 6 51 7 101 1 50 4 93 8 95 3 2 4 -10 2 -28
-5 -30 -4 -30 12 -14 10 9 14 22 10 28 -4 8 -3 9 5 5 6 -4 9 -16 6 -27 -4 -11
-2 -19 4 -19 6 0 11 5 11 10 0 6 5 10 12 10 9 0 9 -3 0 -12 -14 -14 -16 -28
-4 -28 5 0 14 10 21 22 11 23 11 23 7 -2 -2 -14 -7 -36 -11 -50 -5 -19 -3 -17
11 8 9 17 24 32 32 32 14 0 14 -1 0 -13 -16 -13 -32 -47 -21 -47 3 0 12 8 19
18 12 15 12 14 8 -8 -4 -14 -12 -39 -20 -57 -16 -36 -17 -43 -6 -43 5 0 15 19
22 43 8 25 15 35 17 25 3 -9 -1 -27 -7 -38 -6 -12 -9 -24 -6 -27 3 -3 8 1 12
10 3 9 12 13 21 10 12 -5 12 -7 1 -15 -10 -7 -10 -11 -1 -14 7 -3 9 -12 6 -20
-3 -8 1 -14 8 -14 11 0 11 -3 -1 -10 -13 -9 -13 -11 0 -20 14 -9 8 -14 -15
-11 -5 1 -1 -6 9 -14 11 -8 14 -15 8 -15 -7 0 -12 -6 -12 -14 0 -9 7 -12 23
-9 13 3 18 1 11 -4 -18 -13 -26 -61 -11 -67 6 -3 3 -4 -8 -3 -13 2 -19 9 -17
20 2 9 -2 17 -8 17 -6 0 -8 -5 -5 -10 3 -6 1 -10 -6 -10 -7 0 -9 -10 -7 -25 3
-14 1 -25 -3 -25 -5 0 -9 -5 -9 -11 0 -6 5 -7 13 -2 6 4 19 8 27 8 8 0 14 6
12 13 -1 6 2 12 8 12 5 0 10 -9 10 -21 0 -13 4 -18 12 -13 7 4 8 3 4 -4 -4 -6
-14 -9 -24 -6 -14 5 -14 3 2 -10 17 -14 156 -16 1343 -16 1197 0 1323 1 1323
16 0 8 -5 25 -11 36 -15 28 -19 58 -23 168 -4 104 -22 218 -38 237 -5 7 -7 21
-3 32 3 11 1 30 -6 43 -8 14 -8 23 -2 25 7 3 5 19 -3 46 -21 68 -37 154 -30
165 3 6 0 41 -7 79 -20 97 -20 178 -3 274 17 92 19 134 17 317 -1 68 1 127 4
132 3 5 1 11 -4 14 -5 4 -9 30 -8 59 0 28 -3 104 -7 168 -6 79 -4 134 3 170
16 74 26 191 24 269 -2 36 -3 72 -2 80 2 171 -2 314 -11 325 -10 12 2 144 16
166 3 5 22 16 42 25 20 8 40 20 44 27 10 16 10 357 0 357 -11 0 -13 78 -2 85
6 4 10 908 10 2346 l0 2339 -2000 0 -2000 0 -1 -212 c-1 -117 -1 -217 0 -221
1 -5 -8 -11 -19 -14 -11 -3 -20 -12 -20 -19 0 -18 -11 -18 -35 0 -11 8 -26 11
-35 7 -26 -13 -208 -7 -222 7 -10 10 -13 66 -11 233 l2 219 -1409 0 c-1480 0
-1413 2 -1421 -38 -1 -4 -9 -28 -19 -53 -10 -25 -17 -57 -16 -71 4 -38 48
-158 58 -158 4 0 8 -10 8 -23 0 -13 4 -27 9 -33 21 -20 6 -304 -19 -368 -11
-30 -6 -89 15 -160 8 -27 15 -62 15 -77 0 -15 5 -31 10 -34 15 -9 13 -105 -2
-105 -9 0 -10 -3 -2 -8 12 -8 12 -172 -1 -191 -3 -7 -1 -18 5 -26 10 -12 10
-15 -1 -15 -12 0 -12 -2 0 -9 9 -6 10 -11 3 -15 -7 -4 -4 -18 8 -40 32 -53 40
-119 23 -184 -8 -31 -13 -73 -10 -94 3 -20 0 -41 -6 -47 -6 -6 -7 -11 -3 -11
4 0 -14 -15 -41 -32 -118 -79 -186 -95 -318 -76 -83 12 -122 28 -193 82 -58
43 -75 71 -65 108 10 33 4 459 -7 548 -14 111 -23 238 -22 295 1 43 1 682 0
710 -1 20 11 91 17 108 7 16 -4 17 -134 17 l-141 0 1 -2377z m6615 1540 c7
-36 13 -77 17 -115 1 -9 5 -14 9 -12 4 3 8 -13 8 -35 0 -26 5 -41 13 -41 7 0
4 -7 -7 -15 -12 -9 -15 -15 -7 -15 8 0 11 -6 7 -16 -4 -9 -1 -23 6 -31 10 -12
9 -18 -5 -28 -12 -8 -14 -15 -8 -20 6 -3 8 -17 5 -32 -8 -30 17 -234 27 -227
4 2 10 0 14 -6 3 -5 1 -10 -5 -10 -7 0 -9 -10 -6 -27 4 -16 8 -38 10 -50 3
-12 -2 -50 -10 -84 -8 -35 -13 -68 -10 -75 5 -13 -39 -28 -55 -19 -10 7 -38
69 -44 99 -7 34 -8 89 -1 281 14 420 18 515 26 515 4 0 11 -17 16 -37z m-1930
-90 c-8 -8 -57 -12 -52 -5 2 4 16 8 31 8 14 1 24 0 21 -3z m-272 -12 c3 -5 -1
-11 -9 -14 -9 -4 -12 -1 -8 9 6 16 10 17 17 5z m173 -15 c4 -3 -4 -6 -16 -6
-12 0 -19 -4 -16 -10 4 -6 11 -8 16 -4 6 3 19 -2 29 -11 14 -13 23 -15 32 -8
22 17 67 22 61 6 -3 -7 0 -13 6 -13 6 0 11 5 11 11 0 5 16 -2 35 -17 19 -14
32 -30 29 -35 -3 -5 2 -6 10 -3 9 4 25 -5 40 -23 20 -22 27 -26 37 -16 10 10
9 16 -7 27 -10 8 -16 18 -12 22 10 9 35 -13 51 -44 6 -14 21 -30 32 -36 11 -6
23 -15 26 -19 3 -5 9 -1 12 8 5 10 3 14 -5 9 -7 -4 -8 -3 -4 4 4 6 13 9 21 6
8 -4 13 -10 10 -14 -3 -5 4 -11 15 -15 11 -3 20 -10 20 -15 0 -4 10 -10 21
-13 15 -4 20 -11 15 -22 -3 -9 -2 -13 4 -10 6 3 10 -2 10 -12 0 -15 2 -15 9
-4 8 13 12 13 27 0 9 -8 20 -14 23 -14 3 0 6 -11 6 -24 0 -17 10 -29 33 -42
44 -23 49 -29 20 -23 -22 5 -22 4 -4 -8 11 -7 34 -26 51 -43 17 -16 43 -38 59
-48 15 -10 25 -21 22 -24 -3 -3 4 -19 16 -35 16 -23 23 -27 30 -16 6 9 7 6 3
-9 -4 -14 1 -28 13 -40 11 -10 23 -29 27 -43 7 -21 39 -74 55 -90 3 -3 5 -11
6 -17 4 -49 4 -49 14 -33 8 11 9 7 4 -14 -5 -21 -4 -27 5 -22 15 9 14 -7 -1
-22 -9 -9 -9 -12 1 -12 9 0 10 -4 4 -12 -6 -7 -9 -22 -6 -33 17 -90 23 -315 8
-316 -5 0 -4 -3 2 -6 10 -3 10 -10 2 -24 -5 -11 -7 -29 -3 -41 5 -16 3 -20 -8
-15 -12 4 -13 -3 -8 -40 4 -25 7 -74 6 -109 -1 -35 2 -64 7 -64 4 0 7 -12 7
-27 -1 -16 3 -47 8 -70 5 -24 7 -43 5 -43 -10 0 -69 34 -75 44 -4 6 -8 7 -8 2
0 -5 -6 -3 -14 3 -10 9 -15 8 -20 -4 -3 -8 -2 -15 2 -15 4 0 7 -11 7 -25 0
-28 -10 -33 -19 -10 -3 8 -13 15 -21 15 -9 0 -13 -4 -10 -10 4 -7 -3 -7 -19 0
-34 12 -33 1 2 -27 21 -18 23 -22 10 -23 -10 0 -18 5 -18 10 0 6 -7 10 -15 10
-8 0 -14 -5 -13 -11 2 -6 -3 -14 -11 -17 -9 -3 -11 0 -7 9 4 8 2 7 -6 -2 -7
-9 -19 -14 -27 -11 -8 3 -11 0 -7 -7 7 -11 -30 -17 -77 -13 -10 1 -26 -2 -35
-8 -10 -5 -12 -10 -4 -10 6 0 12 -5 12 -11 0 -8 -5 -7 -15 1 -12 10 -21 10
-41 1 -14 -6 -36 -11 -49 -11 -14 0 -25 -4 -25 -10 0 -5 -7 -10 -16 -10 -8 0
-13 -3 -11 -7 3 -5 -5 -9 -16 -9 -44 -3 -109 -25 -147 -49 -22 -14 -42 -25
-44 -25 -10 0 -56 -48 -56 -58 0 -6 6 -12 13 -15 7 -3 2 -9 -13 -15 -22 -9
-18 -11 30 -12 43 -2 50 -4 30 -10 -14 -4 -19 -8 -12 -9 7 -1 10 -6 6 -12 -5
-8 1 -10 19 -7 17 3 24 1 20 -5 -4 -7 0 -8 11 -4 16 6 17 3 11 -20 -3 -16 -15
-37 -26 -49 -40 -43 -4 -40 43 4 l27 25 11 -29 c7 -16 18 -41 25 -56 10 -20
10 -28 2 -31 -7 -2 26 -8 72 -12 66 -6 85 -4 92 6 7 11 9 11 9 1 0 -8 12 -12
34 -10 19 1 34 4 33 7 0 4 7 21 17 40 14 26 17 47 12 86 l-6 52 28 -5 c40 -8
98 -47 105 -71 3 -12 -3 -31 -15 -46 -11 -14 -15 -25 -9 -25 5 0 13 5 16 10 3
6 14 10 23 10 16 -1 16 -2 0 -14 -10 -7 -15 -16 -11 -19 3 -4 0 -7 -7 -7 -7 0
-1 -9 13 -20 31 -25 44 -26 26 -2 -11 14 -9 13 9 -2 12 -11 21 -26 20 -34 -2
-8 4 -17 12 -20 8 -3 12 -1 7 3 -4 5 11 17 33 27 22 10 40 23 40 29 0 5 11 14
26 19 19 8 23 14 16 26 -5 9 -7 25 -5 35 3 11 0 19 -7 19 -7 0 -6 5 4 15 8 9
13 22 10 30 -4 10 0 15 11 15 11 0 15 5 11 15 -3 9 0 15 10 15 10 0 13 -7 8
-25 -5 -20 -3 -24 10 -19 12 5 16 -1 17 -22 2 -43 6 -78 9 -86 1 -5 3 -11 5
-15 1 -5 6 -19 12 -33 18 -43 26 -160 11 -160 -8 0 -9 -3 -3 -8 6 -4 12 -32
13 -62 2 -30 7 -59 12 -64 5 -5 7 -21 4 -35 -3 -14 2 -50 9 -80 22 -81 20
-246 -3 -421 -12 -85 -24 -189 -27 -230 -3 -41 -9 -76 -13 -78 -5 -2 -4 -16 0
-33 5 -18 5 -27 -1 -24 -5 4 -9 -3 -9 -15 0 -12 4 -19 9 -15 6 3 6 -6 1 -24
-5 -19 -4 -33 3 -41 9 -10 8 -11 -7 -6 -15 5 -17 4 -8 -7 7 -8 10 -16 7 -19
-3 -3 -8 -25 -11 -49 -7 -57 -10 -71 -18 -90 -4 -9 -6 -20 -5 -25 1 -5 -1 -22
-6 -38 -7 -27 -9 -28 -21 -11 -14 18 -14 18 -14 -1 0 -11 -5 -25 -12 -32 -9
-9 -9 -12 0 -12 6 0 9 -7 5 -17 -4 -10 -2 -14 4 -10 6 4 14 0 17 -9 4 -12 1
-14 -14 -9 -22 7 -28 -10 -7 -19 6 -3 2 -3 -10 0 -19 4 -23 1 -23 -16 0 -12
-4 -19 -9 -16 -5 3 -8 -5 -8 -19 0 -14 3 -22 8 -19 5 3 9 0 9 -6 0 -7 -7 -9
-16 -6 -22 8 -44 -11 -37 -32 6 -15 5 -15 -10 -3 -9 7 -18 11 -18 7 -5 -23 -4
-34 3 -53 6 -20 4 -22 -18 -21 -16 2 -27 10 -30 25 -4 13 -10 20 -15 17 -5 -3
-9 -1 -9 5 0 5 5 12 10 14 6 3 5 4 -2 3 -8 -2 -12 -17 -11 -40 3 -41 -2 -45
-17 -16 -9 17 -2 73 18 130 7 20 2 53 -9 65 -15 15 -10 28 7 21 12 -5 15 -2
10 10 -3 8 -6 27 -6 40 0 17 -6 24 -20 24 -11 0 -20 5 -20 11 0 6 9 8 21 4 20
-7 21 -4 16 43 -5 53 -17 81 -41 101 -9 8 -13 17 -10 22 3 5 0 9 -6 9 -6 0 -9
4 -6 9 3 5 -4 11 -17 15 -12 3 -44 30 -70 60 -33 38 -52 53 -63 49 -13 -5 -15
-2 -9 15 4 14 2 22 -5 22 -6 0 -8 -4 -5 -10 3 -6 1 -10 -6 -10 -7 0 -5 -8 6
-20 17 -18 16 -22 -1 -19 -4 0 -11 -5 -15 -13 -6 -9 -8 -5 -7 12 2 42 -1 50
-17 50 -9 0 -18 7 -22 16 -4 11 -8 12 -13 4 -12 -20 -61 20 -54 44 4 12 2 16
-5 12 -6 -4 -18 2 -28 14 -10 11 -23 20 -30 20 -7 0 -13 5 -13 12 0 9 -3 9
-11 1 -8 -8 -20 -8 -36 -2 -13 5 -36 6 -49 3 -16 -4 -31 -1 -43 10 -17 16 -22
16 -55 2 -20 -8 -36 -12 -36 -8 0 4 -16 17 -34 30 -19 13 -44 44 -55 68 -12
24 -29 52 -39 62 -22 22 -35 52 -23 52 9 0 22 32 27 65 1 11 5 36 9 55 4 19 3
30 -2 24 -4 -7 -9 18 -9 58 -1 38 -7 75 -12 80 -6 6 -8 23 -5 38 3 15 0 31 -6
34 -6 4 -11 16 -11 28 0 11 -17 54 -37 96 -20 43 -36 85 -34 95 1 10 -4 26
-12 35 -9 10 -18 34 -22 55 -4 20 -11 40 -16 43 -5 3 -9 22 -9 42 -1 63 -18
116 -61 188 -22 38 -48 81 -58 97 -9 15 -23 26 -31 25 -8 -1 -21 1 -27 5 -17
11 -17 54 0 64 9 5 11 16 6 33 -4 14 -8 18 -8 10 -1 -9 -10 -1 -22 18 -15 23
-27 31 -39 27 -9 -3 -23 1 -30 10 -7 8 -21 15 -31 15 -22 0 -34 16 -17 24 7 3
0 2 -17 -1 -16 -3 -31 -10 -33 -15 -2 -4 -9 -8 -14 -8 -6 0 -9 3 -5 6 11 12
-21 34 -39 27 -13 -5 -15 -3 -9 7 8 14 -6 12 -50 -6 -18 -7 -19 -6 -5 11 9 11
10 16 3 11 -8 -4 -13 -2 -13 4 0 6 -5 8 -10 5 -6 -4 -8 -10 -5 -15 3 -5 0 -12
-7 -16 -7 -4 -10 -4 -6 0 3 4 -1 15 -10 25 -13 13 -22 15 -39 8 -24 -11 -22
-27 3 -27 8 0 12 5 9 10 -3 6 -2 10 4 10 25 0 18 -19 -11 -29 -39 -14 -38 -14
-32 4 4 8 -1 17 -10 21 -9 3 -13 10 -10 15 3 5 -2 6 -10 3 -9 -3 -13 -10 -10
-15 3 -5 0 -9 -6 -9 -7 0 -9 8 -5 20 5 15 2 20 -14 20 -11 0 -22 9 -26 21 -6
19 -8 19 -19 3 -8 -10 -30 -18 -57 -20 -38 -3 -42 -1 -26 10 25 19 21 27 -9
15 -15 -5 -29 -7 -32 -4 -3 3 1 5 9 6 8 0 6 4 -6 9 l-20 9 20 1 c19 0 18 2 -5
21 -14 11 -19 18 -12 14 6 -3 12 -1 12 5 0 6 8 9 18 6 24 -8 50 9 27 18 -9 3
-21 4 -26 1 -4 -3 -14 3 -20 14 -7 10 -19 17 -27 13 -12 -4 -12 -1 -3 16 15
28 14 32 -4 26 -11 -5 -13 -2 -8 12 4 12 3 15 -5 10 -7 -4 -12 -14 -12 -21 0
-8 -8 -19 -17 -24 -16 -8 -18 -4 -19 37 -1 29 5 52 14 61 12 13 12 16 -2 26
-9 7 -16 17 -16 24 0 24 -19 9 -26 -21 l-7 -33 -10 38 c-5 20 -15 37 -22 37
-8 0 -17 5 -21 11 -4 8 0 9 15 4 13 -4 21 -2 21 5 0 6 5 8 13 4 9 -6 9 -5 0 7
-7 9 -9 20 -3 29 5 9 5 19 -2 27 -12 15 -42 18 -33 3 4 -6 11 -8 16 -5 5 4 9
-1 9 -9 0 -19 -2 -19 -35 -4 -19 9 -22 14 -13 21 9 6 6 7 -9 4 -15 -3 -20 -1
-17 8 3 7 1 16 -5 20 -8 4 -7 11 3 20 17 18 9 66 -10 58 -8 -3 -14 0 -14 7 0
15 29 39 48 40 7 0 27 13 43 28 30 28 30 29 13 47 -17 17 -17 17 6 10 14 -4
31 -14 38 -23 18 -23 15 -6 -4 23 -10 15 -12 25 -5 25 6 0 11 -5 11 -11 0 -5
5 -7 12 -3 7 5 1 17 -21 36 -28 25 -29 28 -11 28 14 0 24 10 32 30 11 33 42
55 60 44 7 -4 8 -3 4 4 -4 6 -2 21 4 32 7 13 7 20 0 20 -14 0 -13 27 3 33 6 3
2 6 -11 6 -13 1 -20 -3 -17 -9 3 -5 2 -10 -4 -10 -23 0 -20 20 4 26 14 3 25
10 25 16 0 5 -4 6 -10 3 -5 -3 -10 -3 -10 2 0 4 23 18 51 31 32 15 49 28 46
36 -3 8 1 31 8 52 8 22 14 33 15 27 0 -18 20 -16 20 2 0 8 -7 15 -15 15 -8 0
-15 6 -15 13 0 15 20 46 20 32 0 -5 5 -2 11 8 5 9 17 17 24 17 8 0 15 5 15 11
0 5 5 7 12 3 8 -5 9 0 5 15 -5 22 8 44 59 95 12 12 24 33 28 48 6 25 9 26 32
18 32 -12 34 -12 34 1 0 17 28 40 35 29 7 -11 44 21 38 33 -2 4 10 7 27 7 22
0 31 4 27 13 -2 6 2 18 9 25 12 11 15 10 20 -1 4 -12 12 -13 40 -4 45 14 44
24 -2 19 -26 -3 -35 -1 -30 7 4 6 18 11 31 11 13 0 40 7 59 17 29 14 33 19 25
35 -7 14 -6 20 6 24 9 4 14 12 11 20 -3 8 13 21 45 35 27 13 49 26 49 31 0 4
7 8 16 8 10 0 14 6 10 15 -3 8 -1 15 5 15 6 0 13 -9 16 -19 7 -26 43 -34 59
-13 6 9 10 22 7 29 -6 14 23 18 31 5 7 -12 131 -9 129 3 -1 11 64 11 74 1z
m-617 -230 c0 -3 -4 -8 -10 -11 -5 -3 -10 -1 -10 4 0 6 5 11 10 11 6 0 10 -2
10 -4z m-406 -461 l8 -30 -27 29 c-21 22 -24 31 -13 37 16 10 23 2 32 -36z
m-104 -155 c0 -5 -2 -10 -4 -10 -3 0 -8 5 -11 10 -3 6 -1 10 4 10 6 0 11 -4
11 -10z m35 -20 c3 -5 1 -10 -4 -10 -6 0 -11 5 -11 10 0 6 2 10 4 10 3 0 8 -4
11 -10z m-148 -176 c-3 -3 -12 -4 -19 -1 -8 3 -5 6 6 6 11 1 17 -2 13 -5z m21
-32 c3 -9 -2 -13 -14 -10 -9 1 -19 9 -22 16 -3 9 2 13 14 10 9 -1 19 -9 22
-16z m-48 -41 c0 -5 -7 -11 -14 -14 -10 -4 -13 -1 -9 9 6 15 23 19 23 5z m-21
-205 c-3 -3 -11 5 -18 17 -13 21 -12 21 5 5 10 -10 16 -20 13 -22z m31 -11
c-7 -9 -15 -13 -17 -11 -6 6 20 36 26 30 2 -2 -2 -10 -9 -19z m55 -4 c10 -17
-12 -21 -25 -6 -10 12 -10 15 3 15 9 0 18 -4 22 -9z m55 -90 c0 -6 -4 -13 -10
-16 -5 -3 -10 1 -10 9 0 9 5 16 10 16 6 0 10 -4 10 -9z m0 -87 c0 -8 -4 -12
-10 -9 -5 3 -10 10 -10 16 0 5 5 9 10 9 6 0 10 -7 10 -16z m-976 -102 c2 -4
-5 -9 -17 -9 -17 -2 -19 0 -7 7 18 12 18 12 24 2z m-34 -52 c0 -5 -2 -10 -4
-10 -3 0 -8 5 -11 10 -3 6 -1 10 4 10 6 0 11 -4 11 -10z m2965 -20 c-3 -5 -11
-10 -16 -10 -6 0 -7 5 -4 10 3 6 11 10 16 10 6 0 7 -4 4 -10z m-79 -35 c18
-13 18 -14 -4 -8 -12 3 -25 9 -28 14 -8 14 10 11 32 -6z m-1606 -5 c0 -5 -10
-10 -22 -9 -22 0 -22 1 -3 9 11 5 21 9 23 9 1 1 2 -3 2 -9z m-1284 -15 c5 -13
9 -13 23 -3 14 11 14 11 4 -3 -7 -9 -9 -20 -5 -25 4 -5 -6 2 -23 16 -16 14
-32 26 -34 28 -2 1 3 2 13 2 9 0 19 -7 22 -15z m-15 -68 c-10 -9 -11 -8 -5 6
3 10 9 15 12 12 3 -3 0 -11 -7 -18z m62 -34 c-3 -7 -6 -13 -8 -13 -2 0 -5 6
-8 13 -3 8 1 14 8 14 7 0 11 -6 8 -14z m2932 -15 c-17 -4 -36 -6 -43 -3 -8 3
-10 0 -6 -6 7 -13 113 -3 129 12 5 5 18 9 30 8 16 0 14 -3 -10 -14 -16 -8 -25
-15 -20 -15 6 0 -3 -7 -20 -15 l-30 -13 38 -1 c46 -1 47 -12 5 -34 -22 -12
-26 -16 -11 -13 15 2 23 -2 26 -15 3 -11 1 -22 -4 -25 -15 -9 -10 -34 6 -28 8
4 12 10 9 15 -3 5 0 9 5 9 14 0 14 -3 -1 -31 -13 -24 -58 -39 -58 -20 0 6 -7
11 -15 11 -8 0 -15 3 -15 8 0 23 -275 98 -387 105 -7 0 -10 4 -7 9 3 5 8 7 12
4 4 -2 41 3 82 11 41 9 102 17 135 20 33 3 66 10 73 16 16 12 83 26 97 18 5
-2 -4 -8 -20 -13z m142 -54 c-3 -3 -12 -4 -19 -1 -8 3 -5 6 6 6 11 1 17 -2 13
-5z m-1956 -42 c19 -7 13 -11 -40 -26 -78 -22 -155 -23 -176 -3 -8 9 -11 18
-6 21 5 4 11 1 13 -5 3 -8 15 -9 38 -4 19 5 29 10 23 12 -7 3 -13 9 -13 15 0
12 122 4 161 -10z m1429 -1 c0 -5 -11 -11 -25 -13 -14 -3 -25 -3 -25 -1 0 3
34 19 48 22 1 1 2 -3 2 -8z m524 -6 c-4 -8 -8 -15 -10 -15 -2 0 -4 7 -4 15 0
8 4 15 10 15 5 0 7 -7 4 -15z m-1779 -49 c41 -13 75 -21 75 -18 0 3 6 -3 14
-13 13 -18 14 -18 9 8 -6 31 16 38 37 12 7 -8 16 -13 20 -10 13 8 94 -32 117
-57 31 -34 55 -86 42 -90 -6 -2 5 -20 25 -40 33 -33 36 -41 30 -73 -3 -20 -13
-39 -20 -42 -8 -3 -14 -14 -14 -24 0 -11 -7 -22 -15 -25 -8 -4 -15 -11 -15
-17 0 -6 3 -8 6 -4 4 3 13 0 20 -8 18 -17 18 -26 1 -19 -9 3 -13 -4 -11 -27 1
-18 -4 -39 -13 -47 -9 -9 -13 -27 -11 -44 3 -15 1 -28 -2 -28 -4 0 -5 -12 -2
-26 2 -14 0 -29 -5 -33 -14 -8 -26 -111 -14 -111 12 0 11 -40 -1 -56 -5 -7 -2
-14 8 -18 14 -5 14 -9 3 -22 -10 -13 -10 -17 1 -24 16 -10 7 -66 -14 -89 -24
-27 -68 -163 -67 -210 0 -51 22 -88 53 -93 20 -3 23 -8 20 -37 -1 -20 3 -38
10 -43 9 -5 10 -8 1 -8 -6 0 -15 5 -18 10 -11 18 -25 11 -22 -12 2 -18 -9 -28
-52 -50 -30 -15 -57 -31 -60 -35 -7 -9 -49 -34 -111 -65 -25 -13 -73 -47 -108
-76 -35 -28 -68 -52 -73 -52 -6 0 -28 -17 -49 -38 -26 -26 -36 -42 -31 -51 5
-8 14 -10 21 -6 7 5 -1 -13 -18 -38 -18 -25 -32 -53 -32 -62 0 -9 -4 -13 -10
-10 -5 3 -10 -3 -10 -14 0 -14 -5 -19 -15 -15 -8 4 -15 1 -15 -6 0 -6 -4 -9
-9 -6 -5 4 -12 0 -15 -6 -4 -7 -4 -3 -2 10 3 17 -2 25 -19 32 -13 5 -26 18
-30 29 -3 12 -12 21 -19 21 -9 0 -15 23 -19 72 -4 40 -11 74 -17 76 -5 2 -10
10 -10 18 0 8 -5 14 -11 14 -8 0 -10 12 -6 35 3 19 2 35 -4 35 -5 0 -9 -7 -9
-15 0 -8 -4 -15 -10 -15 -13 0 -13 6 3 30 10 17 9 22 -2 29 -9 6 -10 11 -2 15
6 4 11 2 11 -3 0 -6 5 -11 11 -11 5 0 7 5 4 10 -4 6 -2 17 4 24 12 14 5 46 -9
46 -5 0 -11 12 -13 28 l-4 27 -2 -27 c0 -15 6 -33 14 -42 16 -16 20 -27 8 -24
-5 1 -19 -4 -31 -11 -13 -7 -27 -10 -30 -6 -3 3 4 8 16 12 12 3 22 12 22 20 0
9 -6 13 -15 10 -11 -5 -13 0 -8 26 3 18 10 36 14 42 5 5 9 13 9 19 0 5 -6 2
-13 -8 -13 -18 -15 -18 -41 -1 -15 10 -26 25 -24 34 1 9 -1 21 -5 28 -4 6 -2
24 3 39 11 28 4 47 -9 25 -6 -8 -11 -2 -16 21 -4 18 -9 27 -12 21 -10 -27 -19
-11 -18 35 0 48 0 48 49 51 19 1 19 1 1 14 -10 8 -15 19 -11 25 5 8 1 10 -10
5 -13 -5 -15 -2 -10 15 4 11 2 23 -4 27 -5 3 -11 -1 -11 -9 -1 -16 -4 -28 -9
-43 -1 -5 -2 -11 -1 -15 0 -4 -6 -5 -15 -1 -9 3 -11 9 -6 12 5 3 9 17 9 31 0
14 3 33 8 43 5 11 3 23 -4 30 -7 7 -11 8 -10 2 4 -12 -18 -75 -25 -75 -3 0 -1
12 4 26 15 38 12 79 -10 141 -24 67 -24 74 -5 49 13 -17 15 -17 20 -3 4 8 -1
27 -11 41 -15 25 -15 28 0 44 14 16 14 21 1 38 -18 24 -19 54 -2 55 6 0 4 4
-6 7 -16 7 -16 9 2 45 10 20 15 37 10 37 -5 0 -9 7 -9 15 0 8 4 15 9 15 5 0
12 9 16 19 4 12 12 18 21 14 9 -3 14 1 14 12 0 11 -5 15 -14 12 -10 -4 -13 -1
-9 9 3 7 9 14 15 14 5 0 6 5 3 10 -3 6 -2 10 3 10 5 0 12 -10 16 -22 6 -23 6
-23 31 7 22 24 28 27 36 15 8 -11 12 -12 16 -3 3 9 10 10 24 3 15 -8 19 -7 19
5 0 8 7 15 15 15 8 0 14 -5 13 -11 -2 -6 2 -13 8 -16 6 -2 14 9 17 25 5 24 10
28 39 27 39 -2 68 11 68 29 0 17 22 26 66 26 23 0 34 5 34 14 0 8 5 18 12 22
7 5 9 2 6 -8 -4 -9 0 -15 8 -15 8 0 14 4 14 9 0 4 7 8 16 8 13 0 14 3 4 15
-17 20 -4 35 33 36 l32 2 -30 5 -30 5 29 6 c21 4 35 17 49 45 20 39 19 66 -8
129 -10 23 4 22 69 -8 30 -14 60 -25 66 -25 6 0 23 -12 37 -26 15 -15 47 -36
71 -46 24 -11 47 -28 49 -38 3 -10 19 -24 35 -29 38 -13 38 -13 38 -1 0 13
-34 48 -75 77 -17 12 -36 32 -43 45 -9 15 -31 29 -65 40 -29 9 -79 28 -112 42
-33 14 -77 26 -97 26 -20 0 -40 5 -43 10 -12 19 83 10 160 -14z m1343 -53 c-5
-26 -38 -29 -38 -4 0 15 6 21 21 21 14 0 19 -5 17 -17z m-1478 -52 c0 -11 -4
-22 -8 -25 -14 -9 -35 12 -29 28 9 23 37 20 37 -3z m2028 -71 c22 -35 44 -209
39 -308 -5 -99 -21 -141 -31 -81 -6 37 -19 253 -18 307 0 18 -2 30 -6 28 -4
-2 -7 10 -7 27 1 18 -4 35 -10 39 -6 5 -4 8 5 8 8 0 21 -9 28 -20z m-2178
-110 c0 -5 -4 -10 -10 -10 -5 0 -10 5 -10 10 0 6 5 10 10 10 6 0 10 -4 10 -10z
m40 -20 c0 -5 -5 -10 -11 -10 -5 0 -7 5 -4 10 3 6 8 10 11 10 2 0 4 -4 4 -10z
m-453 -607 c-3 -10 -5 -4 -5 12 0 17 2 24 5 18 2 -7 2 -21 0 -30z m8 -75 c6
-4 2 -8 -7 -8 -10 0 -18 7 -18 17 0 9 3 12 8 7 4 -5 12 -12 17 -16z m-638
-250 c-3 -8 -6 -5 -6 6 -1 11 2 17 5 13 3 -3 4 -12 1 -19z m2296 -22 c-10 -14
-24 -23 -31 -21 -9 3 -11 -1 -7 -15 6 -18 3 -20 -19 -16 -14 3 -26 0 -26 -5 0
-5 -10 -14 -22 -19 -13 -5 -18 -9 -11 -9 7 -1 10 -8 7 -16 -4 -8 -11 -12 -17
-8 -6 4 -8 0 -4 -10 3 -10 2 -17 -2 -17 -5 0 -12 7 -15 15 -3 9 -14 15 -23 13
-12 -2 -19 4 -21 17 -3 21 23 38 98 66 19 7 50 23 69 36 42 27 50 23 24 -11z
m197 -36 c0 -5 -2 -10 -4 -10 -3 0 -8 5 -11 10 -3 6 -1 10 4 10 6 0 11 -4 11
-10z m-403 -52 c-3 -7 -5 -2 -5 12 0 14 2 19 5 13 2 -7 2 -19 0 -25z m-1291
-55 c-10 -10 -19 5 -10 18 6 11 8 11 12 0 2 -7 1 -15 -2 -18z m1815 0 c13 -16
12 -17 -3 -4 -17 13 -22 21 -14 21 2 0 10 -8 17 -17z m100 -10 c13 -16 12 -17
-3 -4 -10 7 -18 15 -18 17 0 8 8 3 21 -13z m2793 -131 c-2 -35 -10 -50 -20
-39 -10 9 -15 90 -7 122 l6 30 12 -40 c7 -22 11 -55 9 -73z m-3109 -47 c42 1
59 -3 72 -17 9 -10 26 -18 38 -18 13 0 28 -7 35 -15 9 -11 15 -12 20 -5 4 7
15 3 30 -10 21 -18 40 -25 63 -21 4 0 7 -4 7 -9 0 -15 30 -12 30 3 0 6 5 4 11
-6 6 -11 9 -32 7 -47 -2 -16 0 -28 6 -27 14 3 42 -56 29 -60 -7 -3 -7 -18 2
-47 9 -28 10 -48 3 -59 -6 -12 -5 -22 6 -33 17 -17 22 -54 7 -54 -11 0 -20
-70 -9 -76 5 -3 6 -10 3 -15 -4 -5 -1 -9 4 -9 6 0 11 10 11 23 0 14 3 18 8 10
11 -17 33 0 35 28 1 13 10 34 21 47 l20 22 18 -37 c26 -52 22 -66 -8 -36 l-27
27 -15 -47 c-8 -26 -20 -47 -26 -47 -7 0 -19 -16 -28 -35 -14 -31 -14 -35 -1
-35 12 0 13 -3 3 -15 -6 -8 -9 -19 -5 -25 3 -5 2 -10 -3 -10 -5 0 -12 -11 -14
-25 -3 -14 -2 -25 3 -25 9 0 7 -20 -4 -38 -6 -8 0 -15 15 -21 l23 -10 -24 0
c-13 -1 -22 -4 -18 -7 10 -10 -42 -56 -56 -48 -6 4 -3 -3 8 -15 16 -19 17 -24
5 -31 -9 -5 -17 -5 -20 0 -3 5 -15 8 -27 7 l-21 -1 19 -38 c22 -44 12 -52 -13
-10 -11 17 -18 21 -18 11 0 -9 3 -19 7 -22 3 -4 8 -19 9 -33 2 -20 0 -23 -10
-15 -7 6 -16 8 -19 4 -4 -3 -7 1 -7 11 0 9 4 15 9 11 5 -3 12 -1 16 5 3 5 0
10 -8 10 -8 0 -20 14 -26 30 -12 37 -24 40 -15 4 6 -22 4 -25 -12 -22 -10 2
-23 13 -29 24 -6 11 -16 19 -23 16 -8 -2 -10 2 -6 13 5 13 1 15 -20 11 -14 -2
-28 0 -31 5 -6 8 17 13 53 12 6 -1 12 1 12 3 0 9 -77 81 -92 87 -19 7 -25 27
-8 27 6 0 10 -5 10 -11 0 -5 5 -7 10 -4 6 4 17 1 25 -5 10 -9 15 -9 15 -1 0 6
-11 18 -25 27 -30 20 -32 34 -4 34 11 0 17 -4 14 -10 -3 -5 -4 -10 -1 -10 18
0 13 24 -10 45 -24 22 -25 25 -7 25 10 0 24 -5 30 -11 7 -7 12 -4 16 10 3 14
0 21 -9 21 -8 0 -14 4 -14 10 0 6 9 6 26 -1 30 -11 46 -3 24 11 -13 9 -13 10
0 10 12 1 12 3 -2 14 -10 7 -18 19 -17 27 0 10 2 11 6 2 7 -18 33 -16 33 2 0
9 7 18 15 21 14 6 13 8 -2 20 -17 13 -17 13 2 14 11 1 14 4 8 7 -7 2 -13 12
-14 21 0 11 -2 12 -6 5 -7 -19 -20 -16 -26 7 -3 10 0 21 7 24 6 2 3 5 -6 5
-10 1 -18 6 -18 11 0 6 -9 10 -19 10 -11 0 -23 5 -26 10 -9 15 -52 12 -68 -5
-11 -10 -25 -13 -46 -9 -21 4 -31 3 -31 -5 0 -8 -8 -10 -20 -6 -11 4 -20 2
-20 -4 0 -6 -7 -11 -16 -11 -8 0 -12 -4 -9 -10 3 -5 2 -10 -4 -10 -5 0 -13 5
-16 10 -11 18 -27 11 -22 -10 3 -11 1 -18 -4 -14 -5 3 -9 12 -9 20 0 21 -21
17 -27 -6 -5 -18 -6 -19 -28 -2 -13 9 -21 20 -18 25 7 12 -25 8 -39 -5 -16
-16 -108 -19 -108 -4 0 6 -5 4 -10 -4 -7 -11 -10 -11 -10 -2 0 7 -4 10 -10 7
-5 -3 -17 -2 -27 3 -11 7 -21 5 -31 -5 -18 -18 -29 -8 -12 12 10 13 9 15 -7
15 -10 0 -25 -6 -33 -12 -12 -11 -12 -10 -1 5 11 14 11 17 -2 17 -8 0 -18 -6
-20 -12 -3 -8 -6 -6 -6 5 -1 12 7 17 28 17 16 0 34 7 41 15 7 8 21 15 32 15
10 0 16 5 13 10 -3 6 2 10 11 10 10 0 14 3 11 7 -4 3 -2 12 4 19 6 7 7 19 3
26 -13 21 -13 38 -1 39 7 0 3 4 -8 9 -19 7 -19 8 5 17 29 11 172 17 200 8 14
-4 17 -13 13 -35 -3 -23 0 -30 11 -30 9 0 16 5 16 11 0 5 -4 7 -10 4 -5 -3
-10 -1 -10 4 0 6 4 11 10 11 5 0 7 7 4 15 -12 31 15 43 114 51 53 4 100 7 103
6 4 -1 30 -4 58 -6 60 -6 71 -11 71 -33 0 -13 -3 -13 -16 -2 -14 11 -15 9 -11
-18 3 -17 10 -39 16 -50 10 -17 10 -17 12 2 1 11 1 24 0 28 -1 5 4 7 11 5 13
-5 41 20 51 45 7 19 24 21 47 7 9 -5 19 -5 27 2 9 7 18 7 30 -3 15 -13 15 -12
2 9 -8 12 -19 22 -25 22 -7 0 -15 7 -18 16 -4 9 -9 14 -12 11 -3 -3 -26 3 -50
14 -25 10 -48 18 -52 17 -4 -1 -15 2 -24 6 -10 5 -31 3 -47 -2 -21 -8 -31 -7
-34 1 -5 16 -69 -4 -74 -23 -4 -13 -3 -13 7 0 10 12 11 13 8 1 -7 -25 -308
-66 -308 -43 0 5 9 12 20 15 11 3 20 10 20 17 0 6 -4 8 -10 5 -5 -3 -10 1 -10
10 0 9 -5 13 -11 9 -6 -3 -14 -2 -18 5 -8 13 -109 23 -116 11 -7 -12 22 -33
35 -25 18 11 60 -4 60 -21 0 -13 -3 -14 -15 -4 -9 8 -33 10 -67 7 -29 -3 -45
-4 -35 -1 21 7 18 23 -6 38 -12 8 -23 7 -37 -2 -28 -17 -130 -27 -130 -13 0 7
8 14 18 17 9 3 25 10 34 15 10 5 25 9 33 9 8 0 15 5 15 10 0 6 6 10 14 10 7 0
41 9 76 20 34 11 66 18 70 15 5 -3 12 0 17 7 9 15 45 17 54 4 11 -14 162 -13
167 2 3 10 7 10 18 1 10 -8 14 -8 14 0 0 6 6 11 14 11 8 0 17 8 20 17 6 15 8
14 21 -4 12 -17 24 -20 70 -18z m219 -51 c4 -10 1 -14 -6 -12 -15 5 -23 28
-10 28 5 0 13 -7 16 -16z m-1727 -86 c-3 -8 -6 -5 -6 6 -1 11 2 17 5 13 3 -3
4 -12 1 -19z m1168 2 c3 -5 1 -10 -4 -10 -6 0 -11 5 -11 10 0 6 2 10 4 10 3 0
8 -4 11 -10z m-2068 -62 c-3 -8 -6 -5 -6 6 -1 11 2 17 5 13 3 -3 4 -12 1 -19z
m1441 -16 c2 -8 -2 -10 -13 -5 -15 5 -16 3 -7 -14 8 -14 8 -23 0 -31 -16 -16
-31 -15 -22 1 5 9 4 9 -6 0 -21 -19 -4 -27 31 -14 27 9 36 9 48 -4 10 -10 11
-15 3 -15 -7 0 -12 6 -13 13 0 10 -2 10 -6 0 -2 -7 -12 -13 -21 -13 -15 -1
-15 -2 1 -11 9 -6 14 -15 11 -21 -5 -7 -2 -8 6 -3 7 4 16 2 21 -6 12 -19 11
-32 -1 -24 -5 3 -10 -1 -10 -9 0 -9 4 -16 8 -16 5 0 9 -6 9 -12 0 -7 4 -21 8
-30 4 -11 3 -18 -4 -18 -6 0 -11 -5 -11 -11 0 -8 5 -8 15 1 12 10 18 10 30 0
17 -14 20 -46 5 -55 -5 -3 -10 3 -10 14 0 12 -4 21 -9 21 -14 0 -43 -32 -35
-39 4 -3 9 0 11 7 3 9 10 4 19 -13 19 -38 18 -48 -6 -35 -20 11 -30 -3 -10
-15 6 -3 10 -11 10 -17 0 -7 -4 -7 -12 -1 -20 15 -43 9 -42 -10 1 -9 -4 -17
-12 -17 -8 0 -14 6 -14 13 0 6 -11 -1 -24 -18 -21 -25 -27 -28 -38 -16 -7 8
-8 11 -2 8 7 -4 14 0 18 8 3 8 0 15 -7 15 -7 0 -3 7 8 16 11 8 28 13 38 10 19
-5 31 13 25 38 -2 11 -7 13 -17 6 -13 -7 -13 -11 0 -26 13 -16 12 -16 -8 -3
-16 10 -21 20 -17 33 6 19 6 19 -10 3 -9 -9 -16 -24 -14 -33 2 -10 -4 -18 -15
-20 -14 -2 -16 0 -7 11 7 8 9 19 5 25 -4 6 -1 19 7 28 11 15 11 15 -2 5 -10
-8 -21 -9 -30 -3 -12 8 -13 13 -2 30 15 24 16 33 2 25 -15 -9 -32 5 -22 18 5
7 9 23 9 37 0 25 0 25 -10 -2 -19 -49 -29 -30 -25 46 3 41 1 73 -4 70 -4 -3
-8 -1 -8 5 0 5 9 13 20 16 11 3 20 11 20 16 0 6 4 8 8 5 5 -3 20 6 34 19 14
13 28 21 31 18 3 -2 14 0 24 6 21 12 35 10 41 -7z m-213 -68 c-8 -20 -15 -39
-15 -42 0 -3 -2 -3 -5 0 -6 5 22 78 30 78 3 0 -2 -16 -10 -36z m-1235 -24 c0
-5 -5 -10 -11 -10 -5 0 -7 5 -4 10 3 6 8 10 11 10 2 0 4 -4 4 -10z m1257 -32
c-3 -7 -5 -2 -5 12 0 14 2 19 5 13 2 -7 2 -19 0 -25z m-1635 -10 c14 -10 31
-18 37 -18 6 0 20 -9 31 -20 15 -15 18 -25 11 -38 -5 -9 -15 -32 -21 -49 -7
-18 -17 -33 -22 -33 -6 0 -7 -11 -4 -24 4 -15 0 -28 -9 -36 -11 -9 -13 -28 -9
-83 3 -40 5 -80 5 -91 0 -10 9 -20 20 -23 10 -3 20 -13 20 -22 1 -14 2 -13 6
2 3 10 14 17 29 17 28 0 42 27 45 87 1 21 10 52 21 69 23 40 24 74 1 74 -11 1
-3 9 20 21 21 11 35 24 32 29 -4 6 1 13 10 16 12 5 13 9 5 14 -9 6 -9 13 -1
29 l12 22 29 -21 c19 -14 27 -27 24 -38 -3 -9 2 -6 10 8 17 28 22 53 5 30 -9
-13 -10 -13 -6 0 2 8 12 15 23 15 19 0 20 -4 7 -67 -5 -24 -3 -26 18 -20 19 5
20 7 7 10 -21 4 -21 7 -8 32 9 17 14 18 36 8 25 -11 26 -15 20 -63 -14 -111
-15 -139 -6 -125 8 13 10 12 10 -3 0 -30 -51 -140 -81 -175 -16 -18 -29 -42
-29 -53 0 -11 -4 -17 -10 -14 -13 8 -13 52 0 60 7 4 7 12 0 25 -7 13 -6 20 2
22 6 2 8 10 4 16 -5 9 -11 8 -23 -4 -11 -10 -13 -18 -6 -22 10 -7 11 -90 1
-109 -2 -4 -5 -26 -7 -48 -2 -44 -56 -165 -73 -165 -5 0 -7 -7 -4 -16 4 -10 2
-14 -6 -10 -7 3 -21 9 -30 12 -10 4 -18 10 -18 15 0 11 -44 3 -77 -13 -18 -9
-20 -14 -10 -35 8 -19 8 -29 -2 -46 -12 -18 -11 -23 8 -38 l22 -18 -21 -11
c-22 -12 -23 -37 -2 -59 11 -11 16 -10 34 5 21 19 21 19 10 -2 -7 -13 -28 -24
-62 -32 -77 -18 -122 -56 -201 -168 -38 -56 -79 -110 -90 -120 l-21 -19 7 400
c6 390 8 455 21 715 6 130 15 159 58 190 46 34 155 38 198 8z m384 -14 c0 -10
-4 -28 -9 -39 -9 -18 -8 -19 6 -6 10 7 17 10 18 5 0 -5 2 -17 4 -26 4 -24 -7
-22 -33 5 -18 19 -22 41 -12 67 1 3 2 9 1 13 -1 5 4 7 11 5 7 -3 13 -13 14
-24z m3046 -16 c-8 -8 -12 -9 -12 -1 0 6 -3 20 -6 30 -7 17 -6 17 12 1 14 -14
16 -20 6 -30z m8 -27 c0 -6 -4 -13 -10 -16 -5 -3 -10 1 -10 9 0 9 5 16 10 16
6 0 10 -4 10 -9z m-4780 -96 c19 -95 23 -593 6 -765 -13 -143 -13 -209 2 -495
9 -179 2 -343 -16 -354 -18 -11 -13 -158 6 -177 11 -12 9 -16 -13 -24 -14 -5
-51 -21 -81 -35 -60 -28 -77 -32 -51 -12 14 10 16 28 13 117 -3 58 -11 155
-19 215 -17 124 -16 296 2 430 12 89 23 186 23 215 0 8 -5 53 -12 100 -12 85
-16 277 -7 315 9 39 18 161 21 316 3 128 7 162 22 185 28 46 41 53 69 41 18
-9 26 -25 35 -72z m2714 21 c-3 -15 -8 -25 -11 -23 -2 3 -1 17 3 31 3 15 8 25
11 23 2 -3 1 -17 -3 -31z m320 -7 c-8 -14 -24 -10 -24 6 0 9 6 12 15 9 8 -4
12 -10 9 -15z m676 -9 c0 -5 -2 -10 -4 -10 -3 0 -8 5 -11 10 -3 6 -1 10 4 10
6 0 11 -4 11 -10z m904 -33 c5 -20 3 -27 -4 -22 -14 9 -29 47 -23 58 8 13 19
-4 27 -36z m-1308 6 c-5 -22 -4 -25 4 -13 9 11 13 12 17 2 2 -6 9 -9 15 -6 6
4 13 3 17 -2 3 -5 17 -18 30 -29 l24 -20 -7 23 c-5 14 -3 22 5 22 7 0 10 -3 6
-6 -3 -3 -2 -16 3 -29 5 -12 5 -39 0 -59 -6 -29 -5 -36 7 -36 8 0 12 -4 8 -9
-3 -5 5 -17 17 -25 12 -9 17 -16 10 -16 -7 0 -10 -4 -7 -10 3 -5 -1 -10 -10
-10 -10 0 -15 -7 -13 -17 2 -11 -2 -17 -11 -15 -8 2 -11 -3 -8 -13 6 -14 -10
-21 -36 -16 -5 1 -7 -4 -5 -11 6 -18 -34 -55 -54 -50 -10 2 -18 8 -18 13 0 5
-7 9 -16 9 -8 0 -13 4 -9 9 7 12 -31 25 -46 15 -9 -5 -10 0 -5 17 17 52 21
105 11 122 -7 13 -7 20 2 25 9 6 10 17 3 41 -7 25 -6 30 3 23 8 -7 18 -6 30 2
20 16 23 38 3 30 -25 -10 -25 12 0 39 31 34 38 34 30 0z m1244 -53 c0 -5 -4
-10 -10 -10 -5 0 -10 5 -10 10 0 6 5 10 10 10 6 0 10 -4 10 -10z m-3976 -44
c-3 -15 -8 -25 -11 -23 -2 3 -1 17 3 31 3 15 8 25 11 23 2 -3 1 -17 -3 -31z
m2550 -25 c3 -5 -1 -11 -9 -14 -9 -4 -12 -1 -8 9 6 16 10 17 17 5z m333 -17
c-3 -3 -12 -4 -19 -1 -8 3 -5 6 6 6 11 1 17 -2 13 -5z m-372 -14 c-3 -5 -16
-15 -28 -21 -21 -10 -21 -9 2 10 25 23 36 27 26 11z m-2489 -45 c3 -25 3 -53
-1 -62 -5 -10 -8 -21 -7 -24 1 -3 3 -71 6 -150 3 -79 9 -193 13 -254 4 -60 8
-146 7 -190 -2 -173 -15 -599 -19 -603 -2 -2 0 -15 5 -27 7 -19 5 -25 -8 -28
-11 -3 -8 -5 8 -6 20 -1 13 -7 -31 -26 -31 -13 -61 -25 -68 -27 -9 -2 -12 43
-11 187 1 199 8 424 16 560 2 44 4 98 5 120 0 35 5 95 24 307 2 26 7 53 11 59
3 6 6 44 6 85 -1 40 3 76 9 79 5 4 7 11 4 16 -4 5 -3 14 0 19 13 21 24 8 31
-35z m1159 3 c-7 -29 -24 -52 -32 -44 -5 4 26 76 33 76 3 0 2 -15 -1 -32z
m2840 -1 c-10 -37 -30 -52 -30 -22 0 13 3 21 6 19 4 -2 9 6 12 18 4 12 9 19
12 16 3 -3 3 -17 0 -31z m-698 -19 c-3 -8 -6 -5 -6 6 -1 11 2 17 5 13 3 -3 4
-12 1 -19z m37 -48 c5 -31 4 -42 -3 -35 -6 6 -13 33 -15 60 -6 59 8 40 18 -25z
m242 15 c16 -12 16 -14 3 -15 -9 0 -22 7 -29 15 -16 19 0 19 26 0z m-284 -32
c-6 -2 -10 -9 -6 -14 3 -5 0 -9 -5 -9 -12 0 -14 13 -4 23 3 4 11 7 17 6 6 0 5
-3 -2 -6z m326 -5 c7 -7 12 -16 12 -20 0 -15 -27 -8 -45 12 -18 19 -17 20 1
20 11 0 25 -5 32 -12z m-298 -49 c0 -5 -4 -9 -9 -9 -5 0 -11 -9 -14 -21 -5
-20 -5 -20 14 -3 10 9 22 14 26 11 3 -4 0 -7 -7 -7 -9 0 -8 -5 4 -19 13 -15
14 -20 4 -23 -11 -4 -10 -8 1 -22 8 -9 12 -18 10 -20 -7 -7 -89 74 -89 87 0 7
4 6 10 -3 8 -13 10 -12 11 5 1 11 2 25 2 31 0 6 8 9 18 7 11 -3 19 -9 19 -14z
m260 1 c0 -5 -7 -7 -15 -4 -8 4 -15 8 -15 10 0 2 7 4 15 4 8 0 15 -4 15 -10z
m240 -58 c-7 -3 -16 2 -21 9 -16 25 -9 32 12 13 13 -12 16 -20 9 -22z m-601
-9 c0 -25 -1 -26 -9 -8 -12 27 -12 35 0 35 6 0 10 -12 9 -27z m74 -48 l6 -30
-14 30 -13 30 -11 -25 c-8 -22 -10 -23 -10 -4 -1 11 -6 25 -13 32 -9 9 -9 12
0 12 7 0 12 -4 12 -10 0 -5 5 -10 11 -10 6 0 8 7 5 18 -6 15 -5 15 7 2 8 -8
17 -28 20 -45z m127 25 c0 -5 -7 -10 -15 -10 -8 0 -15 5 -15 10 0 6 7 10 15
10 8 0 15 -4 15 -10z m-40 -15 c0 -8 -2 -15 -4 -15 -2 0 -6 7 -10 15 -3 8 -1
15 4 15 6 0 10 -7 10 -15z m291 -2 c13 -16 12 -17 -3 -4 -17 13 -22 21 -14 21
2 0 10 -8 17 -17z m-341 -35 c0 -4 -4 -8 -10 -8 -5 0 -10 4 -10 9 0 5 -3 18
-6 28 -5 16 -4 16 10 -1 9 -11 16 -23 16 -28z m-66 -13 c-4 -8 -10 -12 -15 -9
-11 6 -2 24 11 24 5 0 7 -7 4 -15z m-4318 -60 c17 -40 17 -165 1 -165 -8 0 -8
-3 -2 -8 24 -18 10 -152 -16 -152 -5 0 -9 -7 -9 -15 0 -24 -19 -18 -32 10 -6
14 -14 25 -17 25 -13 0 -11 86 4 188 23 162 40 190 71 117z m4771 -57 c-3 -8
-6 -5 -6 6 -1 11 2 17 5 13 3 -3 4 -12 1 -19z m-2812 -21 c9 -36 -21 -97 -48
-96 l-22 0 23 9 c31 13 29 40 -3 40 -25 0 -25 1 -9 25 14 21 19 23 32 13 13
-11 15 -10 10 10 -4 12 -2 22 3 22 5 0 11 -10 14 -23z m2012 -34 c-3 -10 -5
-2 -5 17 0 19 2 27 5 18 2 -10 2 -26 0 -35z m653 16 c0 -6 -4 -7 -10 -4 -5 3
-10 11 -10 16 0 6 5 7 10 4 6 -3 10 -11 10 -16z m-1836 -468 c3 -4 -6 -6 -19
-3 -14 2 -25 6 -25 8 0 8 39 4 44 -5z m1886 -15 c0 -2 -7 -7 -16 -10 -8 -3
-12 -2 -9 4 6 10 25 14 25 6z m-1853 -22 c-3 -3 -12 -4 -19 -1 -8 3 -5 6 6 6
11 1 17 -2 13 -5z m1873 2 c0 -2 -16 -14 -36 -26 -19 -12 -33 -25 -30 -27 3
-3 17 2 31 11 14 9 25 12 25 7 0 -10 -61 -51 -76 -51 -5 0 -2 5 6 11 11 8 12
12 3 16 -8 3 -1 15 19 34 28 25 58 38 58 25z m-1830 -36 c20 -6 21 -8 5 -8
-11 0 -29 3 -40 8 -25 11 1 11 35 0z m1687 -26 c9 -24 -10 -36 -33 -19 -18 14
-18 14 6 15 20 0 22 2 10 10 -10 7 -11 10 -2 10 7 0 15 -7 19 -16z m-1632 -14
l20 -9 -20 1 c-11 0 -31 4 -45 8 l-25 8 25 0 c14 0 34 -3 45 -8z m1765 6 c0
-2 -15 -15 -34 -30 -31 -23 -35 -24 -47 -9 -12 15 -12 16 4 10 9 -3 17 -3 17
2 0 4 10 13 23 19 23 11 37 14 37 8z m-161 -83 c-81 -189 -347 -542 -476 -631
-18 -13 -30 -28 -28 -35 3 -7 -9 -27 -25 -46 -37 -41 -37 -43 -4 -27 19 11 32
11 54 3 24 -9 28 -15 23 -36 -4 -15 -2 -22 4 -18 6 4 16 0 23 -8 11 -13 10
-14 -4 -9 -10 4 -16 1 -16 -7 0 -8 -6 -5 -14 6 -8 11 -12 25 -9 32 3 7 2 13
-1 13 -4 0 -12 -14 -18 -31 -10 -29 -11 -29 -29 -13 -21 18 -27 6 -7 -14 7 -7
8 -12 2 -12 -5 0 -15 9 -22 20 -7 11 -17 20 -24 20 -6 0 -4 -8 6 -19 16 -17
16 -19 -4 -24 -14 -3 -20 -1 -17 6 5 15 -11 47 -24 47 -6 0 -6 -8 1 -21 13
-23 8 -32 -17 -35 -9 -2 -28 -5 -41 -9 -15 -4 -21 -2 -17 5 3 5 15 10 25 10
13 0 17 5 14 15 -4 8 -10 15 -16 15 -5 0 -7 -4 -3 -9 3 -5 -4 -12 -15 -16 -11
-3 -20 -11 -20 -17 0 -6 -9 -8 -19 -5 -12 3 -18 0 -15 -7 2 -6 -10 -22 -28
-36 -17 -14 -50 -44 -74 -67 -23 -24 -50 -43 -61 -43 -15 0 -16 -2 -3 -10 12
-8 11 -10 -7 -10 -13 0 -22 -5 -20 -12 1 -7 -4 -12 -10 -11 -7 2 -13 -6 -13
-17 0 -13 -7 -20 -20 -20 -11 0 -20 -4 -20 -10 0 -15 -33 -50 -42 -44 -4 3 -8
-2 -8 -10 0 -8 -9 -18 -20 -21 -11 -4 -18 -11 -15 -16 4 -5 1 -9 -6 -9 -6 0
-18 -8 -26 -17 -13 -17 -14 -16 -10 4 3 12 0 24 -7 26 -8 3 -10 -6 -8 -28 3
-27 0 -34 -17 -40 -11 -3 -20 -12 -18 -18 1 -7 -4 -11 -10 -9 -19 3 -16 -10
11 -47 14 -18 22 -39 20 -46 -3 -7 -1 -16 5 -20 6 -3 11 -17 11 -31 0 -14 4
-22 10 -19 6 3 10 -1 10 -10 0 -9 3 -14 8 -11 4 2 6 -14 5 -37 -1 -23 0 -34 3
-25 8 26 23 22 16 -5 -7 -29 -22 -38 -44 -26 -19 10 -23 5 -30 -36 -2 -12 -11
-20 -25 -21 -11 -1 -20 4 -19 10 3 18 17 37 25 32 4 -3 7 10 8 27 0 20 -1 24
-4 10 -5 -24 -18 -30 -28 -13 -3 5 -1 10 6 10 7 0 10 3 7 6 -3 3 -16 -1 -27
-8 -18 -11 -23 -11 -31 2 -5 8 -6 18 -4 22 3 4 -2 5 -10 2 -9 -3 -13 -11 -9
-17 4 -6 1 -7 -6 -2 -9 5 -10 10 -2 18 14 14 14 27 0 27 -5 0 -8 -4 -5 -9 3
-5 -1 -12 -10 -15 -25 -10 -30 2 -8 18 10 8 15 18 11 22 -4 5 -12 2 -17 -6 -7
-11 -9 -10 -8 7 2 14 7 19 18 16 10 -3 10 -1 -3 7 -9 6 -23 8 -30 4 -9 -6 -9
-4 1 8 9 11 10 22 2 39 -10 24 -10 24 -5 -2 4 -25 3 -27 -30 -24 -39 2 -61 17
-68 46 -4 15 -2 19 9 15 8 -3 14 -1 14 4 0 6 -11 10 -25 10 -18 0 -28 7 -35
24 -5 13 -15 26 -22 29 -9 4 -8 6 4 6 9 1 23 4 31 7 9 3 17 -2 20 -13 3 -10 3
0 0 22 -2 22 -7 48 -10 58 -4 16 0 17 34 12 25 -4 33 -3 23 3 -8 5 -34 12 -57
16 l-43 6 0 -35 c0 -19 4 -35 9 -35 5 0 8 13 6 30 -2 16 0 30 4 30 11 0 24
-67 16 -80 -9 -15 -51 -12 -65 5 -7 8 -9 15 -4 15 4 0 -1 7 -12 15 -15 11 -16
15 -4 15 8 0 3 7 -13 16 -15 8 -25 19 -22 23 2 5 -5 11 -16 14 -12 3 -18 10
-15 16 4 5 -3 15 -14 21 -11 6 -20 15 -20 20 0 5 -10 20 -23 34 -16 17 -23 35
-21 58 1 18 -1 23 -3 11 -5 -26 -18 -30 -27 -8 -8 23 4 45 25 45 12 0 22 -11
28 -32 5 -18 10 -25 10 -14 1 13 6 16 19 11 9 -4 32 -9 50 -12 28 -4 32 -2 31
19 -1 16 -3 18 -6 6 -3 -14 -11 -16 -36 -11 -56 11 -77 24 -33 20 l38 -3 -6
49 -7 49 36 -4 c19 -2 35 0 35 4 0 4 -6 8 -14 8 -7 0 -28 3 -46 7 l-33 6 7
-37 c4 -21 10 -44 13 -53 5 -13 0 -15 -33 -9 -21 4 -46 9 -55 12 -10 3 -20 -6
-28 -23 -10 -22 -14 -24 -22 -12 -5 7 -9 30 -10 49 l-1 35 -8 -30 c-5 -20 -9
-25 -13 -15 -9 25 -13 89 -5 84 4 -3 8 0 8 5 0 6 -7 11 -15 11 -8 0 -15 5 -15
10 0 7 14 9 38 5 45 -7 23 9 -25 18 -31 6 -32 5 -23 -19 13 -33 13 -87 0 -79
-5 3 -10 21 -11 38 -1 30 -1 31 -8 7 -7 -24 -8 -23 -19 15 -6 22 -13 51 -15
65 -3 18 -5 14 -6 -13 0 -23 -5 -36 -11 -32 -6 4 -9 24 -8 45 2 27 7 37 18 35
97 -18 100 -17 100 4 0 38 16 22 28 -26 l11 -48 -6 43 c-3 29 -1 42 7 42 7 0
10 -7 6 -15 -3 -8 -1 -15 4 -15 6 0 10 5 10 11 0 8 12 10 34 6 40 -6 61 11 53
43 -6 23 9 25 60 11 18 -5 35 -6 38 -2 2 5 -12 11 -33 14 -20 3 -47 9 -60 13
-22 6 -23 4 -19 -24 3 -18 0 -32 -6 -35 -20 -6 -97 5 -97 14 0 11 17 11 58 0
30 -9 32 -8 32 15 0 13 -4 24 -10 24 -5 0 -9 -6 -7 -12 2 -14 -3 -14 -85 2
-32 6 -58 15 -58 20 0 5 12 5 28 0 15 -4 44 -11 65 -14 32 -4 38 -2 33 10 -4
9 -2 12 5 8 6 -4 14 -2 18 4 6 10 53 4 114 -14 9 -3 17 -1 17 5 0 6 -7 11 -15
11 -8 0 -15 6 -15 14 0 8 -5 18 -12 22 -8 5 -9 2 -5 -10 6 -16 2 -17 -30 -13
-21 3 -47 9 -57 13 -14 5 -17 4 -12 -4 4 -7 2 -12 -3 -12 -6 0 -11 9 -11 19 0
17 4 18 41 10 23 -6 47 -8 53 -6 6 2 -15 10 -46 17 -61 14 -71 29 -16 24 30
-3 31 -3 8 5 -34 12 -72 13 -66 2 11 -17 15 -82 6 -76 -6 4 -10 18 -11 33 0
15 -5 36 -10 47 -8 17 -9 16 -6 -7 5 -34 -8 -37 -17 -5 -9 36 -7 45 12 42 59
-12 82 -13 82 -6 0 5 -22 12 -50 16 -27 4 -50 11 -50 16 0 5 15 6 33 2 17 -3
29 -2 25 2 -4 4 -26 11 -48 15 -36 7 -40 5 -34 -9 3 -9 8 -32 9 -52 l3 -36
-39 7 c-22 4 -43 10 -46 14 -13 12 4 15 35 7 23 -7 32 -6 33 2 2 18 2 19 -6
55 l-7 33 39 -3 c21 -2 44 -7 50 -11 8 -5 10 6 7 35 l-4 43 15 -39 c19 -49 29
-60 19 -22 -6 24 -4 28 9 23 26 -10 87 -20 87 -14 0 3 -25 11 -56 17 -46 10
-53 14 -43 26 9 11 7 14 -9 14 -12 0 -24 5 -27 10 -5 8 10 9 47 4 29 -4 50 -4
47 0 -3 3 -26 9 -50 12 -24 4 -54 10 -66 15 -21 8 -23 5 -23 -21 0 -16 5 -41
10 -55 9 -23 8 -26 -6 -21 -8 3 -29 6 -45 6 -16 0 -29 5 -29 10 0 7 13 8 36 4
24 -4 35 -3 31 3 -4 6 -9 32 -12 57 -6 45 -5 47 14 37 11 -6 35 -11 53 -10 32
1 32 1 -12 15 -25 8 -51 12 -57 9 -7 -2 -13 1 -13 7 0 7 13 9 35 5 19 -3 35
-2 35 4 0 5 -9 10 -20 10 -11 1 -23 2 -27 3 -5 1 -23 6 -40 10 -49 11 -49 24
0 15 80 -16 87 -14 81 27 -4 31 -2 35 13 29 10 -4 34 -8 53 -11 l35 -4 -40 14
c-22 8 -48 15 -59 15 -15 1 -16 4 -6 16 10 13 9 15 -9 15 -18 0 -20 -3 -11
-19 10 -19 14 -81 5 -81 -27 0 -104 24 -99 31 3 5 14 5 25 -2 12 -6 23 -8 26
-5 3 3 13 1 23 -4 16 -8 16 -5 9 33 -13 69 -13 70 26 64 19 -3 35 -2 35 2 0 5
-25 12 -55 16 -30 3 -55 11 -55 17 0 9 33 6 84 -9 17 -5 18 -1 12 30 -4 20 -3
38 2 41 5 3 13 -18 17 -47 4 -28 10 -45 13 -37 13 35 32 43 78 33 l44 -10 0
28 c0 16 -5 29 -10 29 -7 0 -7 7 0 21 8 15 18 19 40 16 27 -5 28 -4 19 26 -14
51 -3 41 15 -12 20 -61 20 -72 2 -65 -13 5 -31 -24 -21 -34 3 -3 5 0 5 8 0 9
11 11 40 6 25 -4 40 -2 40 4 0 5 -9 10 -19 10 -15 0 -21 10 -26 41 -9 50 1 64
10 15 4 -20 12 -39 17 -42 6 -4 8 6 4 27 -7 34 -7 34 8 9 9 -14 15 -37 16 -52
0 -16 4 -28 8 -28 4 0 7 17 5 38 l-2 37 14 -40 c14 -38 15 -38 12 -8 -5 44 10
32 28 -25 14 -42 15 -43 10 -10 -5 33 -4 36 15 31 11 -3 20 -11 20 -18 0 -7
15 -17 33 -22 17 -5 31 -14 30 -20 -1 -6 16 -18 38 -27 22 -9 42 -23 46 -32 3
-8 12 -13 19 -10 9 4 14 -2 15 -17 0 -12 3 -16 6 -9 4 10 9 9 24 -4 16 -15 19
-15 14 -2 -3 8 -27 31 -53 49 -55 40 -97 79 -83 79 5 0 17 -7 26 -16 11 -11
19 -13 28 -6 8 7 24 4 52 -9 22 -11 56 -22 75 -24 19 -2 35 -4 35 -5 0 -1 9
-3 20 -5 11 -2 24 -10 30 -17 15 -19 35 -21 35 -3 0 8 -6 15 -12 15 -9 0 -9 3
1 9 8 5 19 8 25 6 35 -10 80 -14 66 -6 -22 15 -9 21 51 23 30 2 59 8 64 15 7
8 25 9 57 4 32 -5 45 -4 42 4 -3 7 13 9 55 5 66 -6 96 1 118 28 8 9 12 12 9 5
-4 -7 1 -9 13 -6 12 3 17 11 14 22 -3 11 5 24 22 35 32 21 59 14 52 -13 -3
-12 1 -22 9 -25 19 -7 30 22 15 37 -16 16 -14 27 5 27 8 0 12 -4 9 -10 -3 -5
-1 -19 5 -31 l12 -21 16 23 15 22 9 -22 c4 -13 6 -35 3 -49 -4 -23 -3 -22 5 3
5 17 12 44 15 60 l7 30 14 -27 c19 -36 24 -35 19 3 -4 29 -2 31 24 27 23 -3
30 1 38 23 9 23 8 29 -6 32 -11 3 -10 5 6 6 12 0 24 -5 26 -11 3 -7 6 -3 6 10
1 23 15 30 26 12 4 -6 1 -17 -5 -25 -10 -12 -9 -15 4 -15 11 0 16 9 16 29 0
29 0 29 29 15 l30 -15 -20 -46z m-1554 37 c4 -6 -6 -7 -27 -3 -44 8 -48 13
-10 13 17 0 34 -4 37 -10z m41 -47 c-1 -2 -22 4 -47 12 l-44 14 39 -6 c36 -5
38 -4 32 18 -4 17 -2 15 8 -6 8 -16 13 -31 12 -32z m-306 14 c0 -5 -4 -5 -10
-2 -5 3 -10 14 -10 23 0 15 2 15 10 2 5 -8 10 -19 10 -23z m-44 5 c-10 -2 -22
0 -28 6 -6 6 0 7 19 4 21 -5 23 -7 9 -10z m78 -50 c6 -33 6 -34 -27 -27 -51
11 -69 27 -23 21 l38 -5 -5 37 c-7 45 7 22 17 -26z m-152 13 c3 -14 1 -25 -3
-25 -5 0 -9 11 -9 25 0 14 2 25 4 25 2 0 6 -11 8 -25z m32 -23 c4 -29 3 -41
-4 -37 -5 3 -10 25 -10 47 0 51 5 47 14 -10z m209 41 c-7 -2 -21 -2 -30 0 -10
3 -4 5 12 5 17 0 24 -2 18 -5z m-174 -88 c0 -25 -2 -27 -8 -10 -5 11 -11 38
-14 60 l-6 40 14 -30 c8 -16 14 -43 14 -60z m46 75 c17 -8 16 -8 -7 -7 -16 1
-28 5 -28 9 0 10 9 9 35 -2z m-145 -10 c0 -5 -8 -10 -17 -10 -15 0 -16 2 -3
10 19 12 20 12 20 0z m219 -32 c1 -5 -3 -8 -9 -8 -5 0 -10 12 -9 28 0 24 1 25
9 7 5 -11 9 -23 9 -27z m21 32 c0 -5 -2 -10 -4 -10 -3 0 -8 5 -11 10 -3 6 -1
10 4 10 6 0 11 -4 11 -10z m43 -7 c-7 -2 -19 -2 -25 0 -7 3 -2 5 12 5 14 0 19
-2 13 -5z m77 -3 c0 -5 -5 -10 -11 -10 -5 0 -7 5 -4 10 3 6 8 10 11 10 2 0 4
-4 4 -10z m27 -12 c-3 -8 -6 -5 -6 6 -1 11 2 17 5 13 3 -3 4 -12 1 -19z m-60
6 c-3 -3 -12 -4 -19 -1 -8 3 -5 6 6 6 11 1 17 -2 13 -5z m-2256 -26 c8 -15 10
-64 5 -167 -4 -80 -8 -156 -8 -168 0 -17 -9 -25 -37 -33 -20 -5 -39 -10 -42
-10 -3 0 -5 33 -4 73 1 39 -2 77 -7 84 -5 6 -5 14 0 17 6 4 7 21 1 44 -13 60
-6 134 16 160 25 28 61 29 76 0z m2181 -8 c5 -33 4 -33 -58 -21 l-41 8 8 -36
c5 -20 8 -45 8 -56 l0 -20 -8 20 c-5 11 -11 39 -15 63 l-6 44 37 -3 c21 -2 43
-6 49 -11 8 -6 10 0 6 17 -2 14 0 25 6 25 5 0 12 -13 14 -30z m-213 4 c10 -9
-35 -3 -49 6 -11 8 -7 9 15 4 17 -4 32 -8 34 -10z m286 6 c19 -8 19 -9 -2 -9
-12 -1 -25 4 -28 9 -7 12 2 12 30 0z m-192 -70 c7 -63 -6 -40 -17 30 -4 28 -3
41 2 35 5 -5 12 -35 15 -65z m-486 38 c-3 -8 -6 -5 -6 6 -1 11 2 17 5 13 3 -3
4 -12 1 -19z m730 16 c-3 -3 -12 -4 -19 -1 -8 3 -5 6 6 6 11 1 17 -2 13 -5z
m-329 -19 c3 -3 -4 -5 -16 -5 -11 0 -23 4 -27 9 -6 10 33 6 43 -4z m262 5 c0
-5 -2 -10 -4 -10 -3 0 -8 5 -11 10 -3 6 -1 10 4 10 6 0 11 -4 11 -10z m-633
-47 c-3 -10 -5 -2 -5 17 0 19 2 27 5 18 2 -10 2 -26 0 -35z m250 21 c-3 -3
-12 -4 -19 -1 -8 3 -5 6 6 6 11 1 17 -2 13 -5z m80 -26 c-3 -7 -5 -2 -5 12 0
14 2 19 5 13 2 -7 2 -19 0 -25z m-300 -25 c-3 -10 -5 -2 -5 17 0 19 2 27 5 18
2 -10 2 -26 0 -35z m403 29 c0 -7 -4 -11 -8 -8 -5 3 -21 7 -36 10 -45 8 -43
16 2 13 27 -1 42 -7 42 -15z m95 -37 c0 -51 -9 -54 -80 -30 l-40 14 35 -3 c19
-2 43 -7 53 -11 16 -7 17 -3 11 34 -5 31 -3 41 7 41 10 0 14 -13 14 -45z
m-250 25 c3 -5 -1 -10 -9 -10 -9 0 -16 5 -16 10 0 6 4 10 9 10 6 0 13 -4 16
-10z m151 -10 c9 0 13 -4 10 -9 -7 -11 -44 -3 -53 12 -4 7 0 8 11 4 10 -4 24
-7 32 -7z m-146 -20 c13 -9 13 -10 0 -10 -8 0 -22 5 -30 10 -13 9 -13 10 0 10
8 0 22 -5 30 -10z m2180 6 c0 -2 -7 -7 -16 -10 -8 -3 -12 -2 -9 4 6 10 25 14
25 6z m-2093 -38 c-3 -7 -5 -2 -5 12 0 14 2 19 5 13 2 -7 2 -19 0 -25z m30
-10 c-3 -7 -5 -2 -5 12 0 14 2 19 5 13 2 -7 2 -19 0 -25z m-230 16 c-3 -3 -12
-4 -19 -1 -8 3 -5 6 6 6 11 1 17 -2 13 -5z m-80 -36 c-3 -7 -5 -2 -5 12 0 14
2 19 5 13 2 -7 2 -19 0 -25z m260 19 c9 -9 -26 -7 -57 3 -21 7 -19 8 12 6 21
-1 41 -6 45 -9z m2088 3 c-3 -5 -11 -10 -16 -10 -6 0 -7 5 -4 10 3 6 11 10 16
10 6 0 7 -4 4 -10z m55 0 c0 -5 -5 -10 -11 -10 -5 0 -7 5 -4 10 3 6 8 10 11
10 2 0 4 -4 4 -10z m-2052 -42 c3 -50 -3 -48 -12 5 -4 20 -3 37 1 37 4 0 9
-19 11 -42z m-233 21 c5 -7 -5 -8 -32 -3 -51 9 -54 14 -10 14 20 0 39 -5 42
-11z m166 -14 c13 -4 25 -2 29 5 5 7 9 0 12 -19 5 -32 5 -32 -39 -29 -23 2
-43 7 -43 12 0 5 16 6 35 3 19 -3 35 -2 35 4 0 5 -6 9 -12 10 -37 2 -74 11
-83 20 -10 10 24 7 66 -6z m2059 0 c-7 -9 -15 -13 -19 -10 -3 3 1 10 9 15 21
14 24 12 10 -5z m70 5 c-8 -5 -19 -10 -25 -10 -5 0 -3 5 5 10 8 5 20 10 25 10
6 0 3 -5 -5 -10z m-2285 -20 c18 -8 18 -9 -5 -9 -14 0 -32 4 -40 9 -12 8 -12
10 5 9 11 0 29 -4 40 -9z m107 -25 c3 -14 1 -28 -3 -31 -5 -3 -9 9 -9 25 0 38
6 40 12 6z m2178 11 c0 -2 -7 -7 -16 -10 -8 -3 -12 -2 -9 4 6 10 25 14 25 6z
m45 -6 c-3 -5 -11 -10 -16 -10 -6 0 -7 5 -4 10 3 6 11 10 16 10 6 0 7 -4 4
-10z m-2452 -7 c-7 -2 -21 -2 -30 0 -10 3 -4 5 12 5 17 0 24 -2 18 -5z m162
-13 c25 -11 -1 -11 -35 0 -20 6 -21 8 -5 8 11 0 29 -3 40 -8z m45 -10 c0 -5
-2 -10 -4 -10 -3 0 -8 5 -11 10 -3 6 -1 10 4 10 6 0 11 -4 11 -10z m60 6 c0
-3 -4 -8 -10 -11 -5 -3 -10 -1 -10 4 0 6 5 11 10 11 6 0 10 -2 10 -4z m122
-35 c2 -17 1 -28 -2 -26 -4 2 -23 5 -43 7 -21 1 -37 6 -37 11 0 5 16 6 35 3
35 -7 35 -6 29 20 -5 17 -3 25 3 21 6 -4 13 -20 15 -36z m2068 30 c0 -5 -7
-12 -16 -15 -14 -5 -15 -4 -4 9 14 17 20 19 20 6z m-2437 -8 c-7 -2 -21 -2
-30 0 -10 3 -4 5 12 5 17 0 24 -2 18 -5z m327 -4 c11 -7 4 -8 -25 -3 -50 8
-58 14 -19 14 16 0 36 -5 44 -11z m69 -26 c-1 -34 -2 -35 -9 -13 -11 36 -11
50 0 50 6 0 10 -17 9 -37z m-229 17 l25 -8 -25 -1 c-14 0 -32 4 -40 9 -13 9
-13 10 0 9 8 -1 26 -5 40 -9z m46 -47 c-3 -3 -20 -1 -38 5 l-33 11 33 -5 c28
-5 32 -3 33 18 l2 23 4 -23 c3 -13 2 -26 -1 -29z m33 15 c-1 -31 -1 -31 -8 -8
-5 14 -6 28 -4 33 9 15 13 6 12 -25z m33 -18 c4 -49 -7 -39 -16 13 -5 24 -4
37 2 33 6 -3 12 -24 14 -46z m-247 30 c17 -7 15 -9 -12 -9 -18 -1 -33 4 -33 9
0 12 17 12 45 0z m2339 -4 c-10 -8 -21 -12 -24 -10 -5 6 21 24 34 24 6 0 1 -6
-10 -14z m51 -5 c-3 -6 -11 -11 -17 -11 -6 0 -6 6 2 15 14 17 26 13 15 -4z
m-2292 -41 c4 -30 3 -38 -3 -25 -8 19 -14 83 -6 74 2 -2 6 -24 9 -49z m334
-28 c-2 -10 -8 -1 -15 22 -6 22 -8 44 -5 50 8 13 26 -49 20 -72z m1873 58 c0
-5 -2 -10 -4 -10 -3 0 -8 5 -11 10 -3 6 -1 10 4 10 6 0 11 -4 11 -10z m-2022
-90 l0 -35 -9 40 c-4 22 -8 51 -7 65 0 23 1 22 8 -5 4 -16 8 -46 8 -65z m-238
72 c0 -4 -16 -6 -35 -4 -19 2 -35 6 -35 8 0 2 16 4 35 4 19 0 35 -4 35 -8z
m315 -3 c16 -7 13 -8 -15 -6 l-35 2 3 -47 c2 -27 0 -48 -5 -48 -4 0 -9 25 -9
55 -1 50 0 55 20 54 11 0 30 -5 41 -10z m2040 1 c-3 -5 -11 -10 -16 -10 -6 0
-7 5 -4 10 3 6 11 10 16 10 6 0 7 -4 4 -10z m-2175 -18 c0 -4 -16 -6 -35 -4
-19 2 -35 6 -35 8 0 2 16 4 35 4 19 0 35 -4 35 -8z m-165 -12 l20 -9 -20 1
c-11 0 -31 4 -45 8 l-25 8 25 0 c14 0 34 -3 45 -8z m2335 -5 c-7 -8 -17 -15
-22 -15 -6 0 -5 7 2 15 7 8 17 15 22 15 6 0 5 -7 -2 -15z m-2263 -32 c-3 -10
-5 -4 -5 12 0 17 2 24 5 18 2 -7 2 -21 0 -30z m120 14 c9 -10 -38 -7 -62 3
-15 7 -11 8 17 6 21 -1 41 -6 45 -9z m93 -26 c0 -16 3 -38 6 -48 5 -13 4 -15
-4 -8 -15 13 -24 85 -12 85 6 0 10 -13 10 -29z m-240 11 c0 -5 -13 -7 -30 -4
-16 2 -30 6 -30 8 0 2 14 4 30 4 17 0 30 -4 30 -8z m57 -39 c-3 -10 -5 -2 -5
17 0 19 2 27 5 18 2 -10 2 -26 0 -35z m2233 38 c0 -5 -7 -12 -16 -15 -14 -5
-15 -4 -4 9 14 17 20 19 20 6z m-2197 -59 l5 -54 -32 5 c-17 2 -40 8 -50 12
-16 7 -18 5 -13 -8 3 -9 2 -17 -3 -17 -6 0 -10 7 -10 15 0 8 -4 15 -8 15 -5 0
-14 12 -21 28 -11 27 -11 27 6 6 17 -20 99 -48 114 -39 3 3 4 26 1 52 -2 27
-2 46 1 43 3 -3 7 -29 10 -58z m57 48 c12 -8 11 -10 -7 -10 -13 0 -23 5 -23
10 0 13 11 13 30 0z m-135 -20 c17 -7 15 -9 -12 -9 -17 -1 -35 4 -38 9 -7 12
22 12 50 0z m114 -68 c1 -14 -3 -21 -10 -17 -5 4 -8 12 -6 18 2 7 1 22 -4 33
-4 12 -5 25 -1 29 8 7 19 -28 21 -63z m91 47 c0 -11 -38 -11 -65 1 -15 6 -9 8
23 8 23 0 42 -4 42 -9z m-174 -9 c13 0 24 -4 24 -10 0 -12 -61 -1 -75 13 -7 7
-4 8 8 3 10 -3 30 -6 43 -6z m113 -70 c0 -28 -2 -31 -9 -15 -5 11 -9 36 -9 55
0 28 2 31 9 15 5 -11 9 -36 9 -55z m38 -22 c6 -29 9 -38 7 -20 -3 39 13 43 21
5 15 -70 17 -66 -21 -58 -20 3 -42 9 -51 12 -13 5 -14 -3 -8 -53 5 -43 4 -56
-4 -48 -6 5 -13 34 -16 63 -4 52 -3 53 20 49 40 -8 48 4 37 56 -5 25 -6 46 -2
46 4 0 11 -24 17 -52z m78 31 c32 -8 44 -16 47 -33 4 -22 3 -22 -44 -13 -55
11 -55 23 0 18 20 -1 34 0 31 3 -5 5 -71 18 -96 19 -19 0 -16 17 3 17 8 0 35
-5 59 -11z m-237 -16 c-2 -12 3 -17 16 -16 11 1 30 -3 42 -7 14 -6 26 -5 29 0
3 5 -10 12 -30 16 -19 3 -38 11 -42 17 -4 7 0 8 11 4 10 -4 29 -7 43 -7 16 0
27 -7 30 -20 3 -11 11 -20 19 -20 7 0 15 -4 18 -9 6 -9 -42 -6 -71 4 -7 2 -13
-1 -14 -8 0 -7 -4 -3 -9 8 -7 14 -8 8 -3 -19 4 -28 3 -37 -6 -32 -6 4 -11 16
-11 27 0 10 -7 19 -15 19 -8 0 -15 3 -15 8 0 4 -3 17 -6 30 -4 13 -2 22 5 22
7 0 11 -8 9 -17z m2292 -18 c-7 -8 -17 -15 -22 -15 -11 0 14 29 26 30 5 0 3
-7 -4 -15z m-5 -44 c-3 -6 -14 -11 -23 -11 -15 1 -15 2 2 15 21 16 32 13 21
-4z m-2213 -31 c2 -22 0 -40 -4 -40 -8 0 -10 6 -13 53 -3 43 12 31 17 -13z
m153 -1 c4 -17 5 -32 3 -34 -7 -7 -118 19 -118 28 0 9 53 3 87 -10 13 -5 15
-1 11 20 -7 38 9 34 17 -4z m1995 1 c-30 -23 -41 -25 -34 -6 6 14 46 36 54 29
3 -2 -6 -13 -20 -23z m-1960 10 c0 -5 -7 -10 -15 -10 -8 0 -15 5 -15 10 0 6 7
10 15 10 8 0 15 -4 15 -10z m2025 -10 c-3 -5 -12 -10 -18 -10 -7 0 -6 4 3 10
19 12 23 12 15 0z m-75 -40 c-27 -21 -40 -25 -40 -12 0 9 53 40 60 35 3 -3 -6
-13 -20 -23z m70 5 c-7 -9 -15 -13 -19 -10 -3 3 1 10 9 15 21 14 24 12 10 -5z
m0 -28 c0 -2 -9 -12 -20 -22 -24 -21 -27 -14 -4 9 15 15 24 20 24 13z m-750
-37 c0 -5 -4 -10 -10 -10 -5 0 -10 5 -10 10 0 6 5 10 10 10 6 0 10 -4 10 -10z
m745 -9 c-3 -6 -11 -11 -17 -11 -6 0 -6 6 2 15 14 17 26 13 15 -4z m-5 -35 c0
-2 -7 -7 -16 -10 -8 -3 -12 -2 -9 4 6 10 25 14 25 6z m-60 -24 c0 -10 -50 -35
-57 -28 -3 3 29 24 55 35 1 1 2 -3 2 -7z m50 -17 c-7 -8 -22 -15 -34 -15 -20
0 -19 1 4 14 34 19 45 19 30 1z m-5 -35 c-3 -5 -12 -10 -18 -10 -7 0 -6 4 3
10 19 12 23 12 15 0z m-5 -35 c-7 -9 -15 -13 -19 -10 -3 3 1 10 9 15 21 14 24
12 10 -5z m40 -50 c-7 -8 -17 -15 -23 -15 -6 0 -2 7 9 15 25 19 30 19 14 0z
m73 -15 c3 -11 1 -23 -4 -26 -5 -3 -9 6 -9 20 0 31 6 34 13 6z m44 -32 c-3 -8
-6 -5 -6 6 -1 11 2 17 5 13 3 -3 4 -12 1 -19z m-117 -23 c-7 -9 -15 -13 -19
-10 -3 3 1 10 9 15 21 14 24 12 10 -5z m137 -17 c-3 -7 -5 -2 -5 12 0 14 2 19
5 13 2 -7 2 -19 0 -25z m-106 -1 c-10 -9 -11 -8 -5 6 3 10 9 15 12 12 3 -3 0
-11 -7 -18z m-1953 -92 c-3 -3 -9 2 -12 12 -6 14 -5 15 5 6 7 -7 10 -15 7 -18z
m1856 -27 c-10 -16 -22 -7 -17 13 4 15 8 17 14 8 4 -7 5 -17 3 -21z m-1804
-36 c0 -9 -7 -6 -20 11 -11 14 -20 29 -20 33 0 4 9 -1 20 -11 11 -10 20 -25
20 -33z m21 -45 c-8 -8 -11 -3 -11 19 1 25 2 27 11 11 8 -14 8 -22 0 -30z
m1878 -57 c0 -22 -1 -23 -8 -5 -4 11 -11 36 -14 55 l-6 35 14 -30 c8 -16 14
-41 14 -55z m-1853 23 c-11 -11 -19 6 -11 24 8 17 8 17 12 0 3 -10 2 -21 -1
-24z m33 -33 c1 10 9 6 29 -13 23 -23 25 -29 12 -37 -13 -8 -12 -10 3 -10 19
0 21 -8 7 -30 -8 -13 -10 -12 -10 3 0 9 -4 17 -10 17 -5 0 -11 15 -11 33 -1
17 -3 24 -6 14 -4 -16 -7 -15 -25 8 -13 17 -17 32 -12 43 6 14 9 11 14 -13 4
-16 8 -23 9 -15z m165 -75 c11 -8 16 -15 10 -15 -5 0 -18 7 -28 15 -11 8 -16
15 -10 15 5 0 18 -7 28 -15z m-87 -14 c-3 -13 3 -27 17 -38 21 -18 21 -18 3 3
-14 17 -15 21 -2 21 8 0 13 -3 10 -5 -3 -3 0 -11 6 -18 14 -18 -23 -38 -39
-22 -19 19 -14 78 6 78 2 0 2 -9 -1 -19z m1617 0 c3 -5 -1 -11 -9 -14 -9 -4
-12 -1 -8 9 6 16 10 17 17 5z m-1584 -81 c0 -5 -4 -10 -10 -10 -5 0 -10 5 -10
10 0 6 5 10 10 10 6 0 10 -4 10 -10z m50 -11 c0 -11 -4 -18 -10 -14 -5 3 -7
12 -3 20 7 21 13 19 13 -6z m1880 -10 c0 -6 -4 -7 -10 -4 -5 3 -10 11 -10 16
0 6 5 7 10 4 6 -3 10 -11 10 -16z m-1776 -3 c-3 -8 -13 -17 -22 -21 -13 -5
-13 -2 3 15 21 24 26 25 19 6z m212 -21 c3 -27 -11 -32 -36 -14 -13 9 -12 10
3 5 13 -4 17 0 17 21 0 32 12 23 16 -12z"/>
<path d="M4668 6973 c6 -2 18 -2 25 0 6 3 1 5 -13 5 -14 0 -19 -2 -12 -5z"/>
<path d="M5010 6820 c0 -5 7 -10 15 -10 8 0 15 5 15 10 0 6 -7 10 -15 10 -8 0
-15 -4 -15 -10z"/>
<path d="M3716 6563 c-6 -14 -5 -15 5 -6 7 7 10 15 7 18 -3 3 -9 -2 -12 -12z"/>
<path d="M3490 6130 c0 -5 5 -10 10 -10 6 0 10 5 10 10 0 6 -4 10 -10 10 -5 0
-10 -4 -10 -10z"/>
<path d="M3480 6101 c0 -6 4 -13 10 -16 6 -3 7 1 4 9 -7 18 -14 21 -14 7z"/>
<path d="M3490 6060 c0 -5 5 -10 10 -10 6 0 10 5 10 10 0 6 -4 10 -10 10 -5 0
-10 -4 -10 -10z"/>
<path d="M3382 5922 c1 -9 0 -21 -4 -27 -3 -5 1 -17 10 -24 14 -13 15 -12 10
7 -4 12 -2 25 3 28 14 8 11 21 -7 28 -11 4 -14 1 -12 -12z"/>
<path d="M3426 5851 c-18 -34 -19 -41 -8 -41 9 0 34 61 28 68 -3 2 -12 -10
-20 -27z"/>
<path d="M3340 5854 c0 -8 5 -12 10 -9 6 4 8 11 5 16 -9 14 -15 11 -15 -7z"/>
<path d="M3400 5780 c0 -5 5 -10 10 -10 6 0 10 5 10 10 0 6 -4 10 -10 10 -5 0
-10 -4 -10 -10z"/>
<path d="M3485 5760 c-3 -5 -1 -10 4 -10 6 0 11 5 11 10 0 6 -2 10 -4 10 -3 0
-8 -4 -11 -10z"/>
<path d="M3457 5723 c-4 -3 -7 -11 -7 -17 0 -6 5 -5 12 2 6 6 9 14 7 17 -3 3
-9 2 -12 -2z"/>
<path d="M3545 5519 c-11 -16 -1 -19 13 -3 7 8 8 14 3 14 -5 0 -13 -5 -16 -11z"/>
<path d="M4907 5259 c7 -7 15 -10 18 -7 3 3 -2 9 -12 12 -14 6 -15 5 -6 -5z"/>
<path d="M4780 4860 l-45 -7 60 -1 c33 -1 67 3 75 8 18 11 -17 11 -90 0z"/>
<path d="M5236 4858 c3 -4 11 -8 17 -8 7 0 24 -7 40 -14 15 -8 27 -11 27 -5 0
5 -5 9 -11 9 -5 0 -7 5 -4 10 7 11 6 11 -42 14 -17 1 -29 -2 -27 -6z"/>
<path d="M5195 4840 c-4 -7 -2 -17 5 -23 10 -9 12 -8 7 6 -7 20 3 22 22 5 11
-11 13 -10 9 2 -6 19 -34 25 -43 10z"/>
<path d="M5115 4819 c-4 -6 -5 -12 -2 -15 2 -3 7 2 10 11 7 17 1 20 -8 4z"/>
<path d="M4817 3890 c-18 -17 -26 -30 -18 -30 11 0 10 -4 -3 -19 -15 -17 -15
-19 -1 -25 9 -3 23 1 32 9 8 9 28 22 44 30 30 16 34 23 21 41 -17 25 -43 23
-75 -6z"/>
<path d="M5295 3490 c3 -5 10 -10 16 -10 5 0 9 5 9 10 0 6 -7 10 -16 10 -8 0
-12 -4 -9 -10z"/>
<path d="M5370 3176 c0 -8 4 -17 9 -20 5 -4 7 3 4 14 -6 23 -13 26 -13 6z"/>
<path d="M5390 3131 c0 -5 5 -13 10 -16 6 -3 10 -2 10 4 0 5 -4 13 -10 16 -5
3 -10 2 -10 -4z"/>
<path d="M5366 3100 c20 -43 24 -47 24 -29 0 8 -10 25 -21 39 l-20 25 17 -35z"/>
<path d="M3905 4829 c-4 -5 -13 -8 -19 -6 -7 3 -18 2 -25 -2 -7 -5 3 -8 23 -9
35 -1 55 11 37 22 -5 4 -13 1 -16 -5z"/>
<path d="M3626 4758 c10 -13 19 -24 20 -25 0 -2 11 9 25 24 13 15 16 21 7 14
-12 -9 -18 -10 -18 -2 0 6 -12 11 -27 11 -26 0 -26 0 -7 -22z"/>
<path d="M3151 4521 c-8 -5 -11 -16 -8 -24 4 -10 -1 -17 -11 -20 -12 -3 -11
-5 5 -6 13 -1 27 8 34 20 13 24 1 42 -20 30z"/>
<path d="M3121 4154 c0 -11 3 -14 6 -6 3 7 2 16 -1 19 -3 4 -6 -2 -5 -13z"/>
<path d="M3191 4044 c0 -11 3 -14 6 -6 3 7 2 16 -1 19 -3 4 -6 -2 -5 -13z"/>
<path d="M3197 3883 c-4 -3 -7 -16 -6 -27 0 -19 1 -19 10 3 10 24 8 36 -4 24z"/>
<path d="M3223 3755 c-3 -9 -3 -19 1 -22 3 -4 6 1 6 10 0 8 6 18 13 20 9 4 9
6 -1 6 -7 1 -15 -6 -19 -14z"/>
<path d="M3352 3626 c1 -10 8 -17 13 -17 15 1 12 24 -3 29 -9 3 -13 -2 -10
-12z"/>
<path d="M3321 3454 c0 -11 3 -14 6 -6 3 7 2 16 -1 19 -3 4 -6 -2 -5 -13z"/>
<path d="M3350 3323 c0 -22 2 -25 10 -13 13 20 13 40 0 40 -5 0 -10 -12 -10
-27z"/>
<path d="M4550 3310 c0 -5 5 -10 10 -10 6 0 10 5 10 10 0 6 -4 10 -10 10 -5 0
-10 -4 -10 -10z"/>
<path d="M4738 3313 c7 -3 16 -2 19 1 4 3 -2 6 -13 5 -11 0 -14 -3 -6 -6z"/>
<path d="M4630 3207 c0 -10 8 -17 18 -17 9 0 13 4 7 8 -5 4 -13 11 -17 16 -5
5 -8 2 -8 -7z"/>
<path d="M4830 3200 c0 -5 5 -10 11 -10 5 0 7 5 4 10 -3 6 -8 10 -11 10 -2 0
-4 -4 -4 -10z"/>
<path d="M4566 3183 c-6 -14 -5 -15 5 -6 7 7 10 15 7 18 -3 3 -9 -2 -12 -12z"/>
<path d="M4907 3169 c7 -7 15 -10 18 -7 3 3 -2 9 -12 12 -14 6 -15 5 -6 -5z"/>
<path d="M4526 3155 c4 -8 10 -12 15 -9 11 6 2 24 -11 24 -5 0 -7 -7 -4 -15z"/>
<path d="M4960 3086 c0 -3 9 -10 20 -16 11 -6 20 -8 20 -6 0 3 -9 10 -20 16
-11 6 -20 8 -20 6z"/>
<path d="M4990 2636 c0 -2 7 -7 16 -10 8 -3 12 -2 9 4 -6 10 -25 14 -25 6z"/>
<path d="M5030 2601 c0 -5 7 -15 17 -22 15 -13 15 -12 4 9 -12 23 -21 28 -21
13z"/>
<path d="M3840 2950 c0 -5 5 -10 10 -10 6 0 10 5 10 10 0 6 -4 10 -10 10 -5 0
-10 -4 -10 -10z"/>
<path d="M3870 2911 c0 -12 5 -21 10 -21 6 0 10 6 10 14 0 8 -4 18 -10 21 -5
3 -10 -3 -10 -14z"/>
<path d="M2312 2837 c2 -20 6 -37 9 -37 4 0 5 -21 4 -47 -3 -31 -1 -42 5 -33
5 8 6 26 3 40 l-6 25 28 -25 28 -25 -21 36 c-12 20 -22 43 -22 50 0 8 -7 23
-15 34 -14 18 -15 17 -13 -18z"/>
<path d="M4024 2882 c4 -7 1 -15 -8 -18 -13 -5 -12 -8 2 -25 9 -10 22 -19 29
-19 7 0 13 -4 13 -9 0 -5 -8 -8 -17 -7 -18 1 -20 -16 -7 -54 9 -26 43 41 37
72 -3 15 -9 25 -14 22 -5 -3 -9 2 -9 11 0 9 5 13 10 10 6 -3 10 -1 10 5 0 7
-6 10 -14 7 -7 -3 -19 0 -26 6 -10 9 -11 9 -6 -1z"/>
<path d="M4091 2818 c1 -24 3 -27 6 -10 2 12 9 22 14 22 5 0 9 5 9 10 0 6 -7
10 -15 10 -11 0 -15 -10 -14 -32z"/>
<path d="M3991 2824 c0 -11 3 -14 6 -6 3 7 2 16 -1 19 -3 4 -6 -2 -5 -13z"/>
<path d="M3958 2771 c7 -4 14 -18 15 -29 2 -26 24 -30 24 -4 0 17 -24 41 -42
42 -5 0 -4 -4 3 -9z"/>
<path d="M4083 2762 c-15 -10 -12 -39 4 -39 7 0 13 5 13 11 0 6 5 4 10 -4 8
-12 10 -11 10 6 0 23 -20 37 -37 26z"/>
<path d="M4080 2678 c0 -11 12 -10 30 2 12 7 10 9 -8 7 -12 0 -22 -5 -22 -9z"/>
<path d="M4018 2603 c7 -3 16 -2 19 1 4 3 -2 6 -13 5 -11 0 -14 -3 -6 -6z"/>
<path d="M3225 1559 c4 -19 9 -44 12 -56 5 -21 3 -22 -26 -13 -19 5 -31 5 -31
-1 0 -5 10 -9 23 -9 24 0 62 -20 39 -20 -7 0 -10 -4 -7 -10 3 -5 12 -10 20
-10 12 0 12 7 0 47 -11 37 -12 49 -2 55 9 6 8 11 -3 19 -12 8 -9 9 13 5 15 -4
27 -2 27 4 0 5 -6 10 -12 10 -7 0 -24 3 -37 7 -22 6 -23 4 -16 -28z"/>
<path d="M3285 1510 c3 -5 8 -10 11 -10 2 0 4 5 4 10 0 6 -5 10 -11 10 -5 0
-7 -4 -4 -10z"/>
<path d="M3306 1494 c-4 -9 -3 -32 0 -52 5 -24 3 -33 -4 -28 -6 3 -13 2 -17
-4 -3 -5 1 -10 9 -10 26 0 31 4 28 25 -9 65 -8 70 18 68 23 -2 23 -2 5 6 -29
13 -32 13 -39 -5z"/>
<path d="M3148 1493 c7 -3 16 -2 19 1 4 3 -2 6 -13 5 -11 0 -14 -3 -6 -6z"/>
<path d="M3277 1468 c8 -44 13 -48 13 -10 0 17 -4 34 -10 37 -6 4 -7 -6 -3
-27z"/>
<path d="M3370 1490 c0 -5 5 -10 11 -10 5 0 7 5 4 10 -3 6 -8 10 -11 10 -2 0
-4 -4 -4 -10z"/>
<path d="M3401 1484 c0 -11 3 -14 6 -6 3 7 2 16 -1 19 -3 4 -6 -2 -5 -13z"/>
<path d="M3115 1480 c-3 -5 -1 -10 4 -10 6 0 11 5 11 10 0 6 -2 10 -4 10 -3 0
-8 -4 -11 -10z"/>
<path d="M3461 1474 c0 -11 3 -14 6 -6 3 7 2 16 -1 19 -3 4 -6 -2 -5 -13z"/>
<path d="M3150 1449 c0 -16 5 -29 11 -29 6 0 8 9 4 20 -6 18 -3 19 27 13 40
-7 33 4 -11 17 -30 8 -31 7 -31 -21z"/>
<path d="M3490 1470 c0 -5 4 -10 9 -10 6 0 13 5 16 10 3 6 -1 10 -9 10 -9 0
-16 -4 -16 -10z"/>
<path d="M3367 1463 c-3 -5 6 -9 20 -10 19 -1 22 1 12 8 -17 11 -26 11 -32 2z"/>
<path d="M3340 1425 c0 -14 4 -25 9 -25 4 0 6 11 3 25 -2 14 -6 25 -8 25 -2 0
-4 -11 -4 -25z"/>
<path d="M3085 1430 c28 -12 57 -12 50 0 -3 6 -21 10 -38 9 -27 0 -29 -2 -12
-9z"/>
<path d="M3185 1428 c3 -7 24 -14 48 -15 l42 -2 -45 14 c-25 8 -46 15 -47 15
-1 0 0 -6 2 -12z"/>
<path d="M3365 1428 c3 -8 24 -13 53 -14 48 -2 39 6 -25 20 -25 6 -32 4 -28
-6z"/>
<path d="M3543 1433 c8 -13 57 -23 57 -12 0 5 -6 9 -14 9 -8 0 -22 3 -32 7
-11 4 -15 3 -11 -4z"/>
<path d="M3471 1414 c0 -11 3 -14 6 -6 3 7 2 16 -1 19 -3 4 -6 -2 -5 -13z"/>
<path d="M3220 1380 c0 -11 2 -20 4 -20 2 0 6 9 9 20 3 11 1 20 -4 20 -5 0 -9
-9 -9 -20z"/>
<path d="M3405 1390 c3 -5 8 -10 11 -10 2 0 4 5 4 10 0 6 -5 10 -11 10 -5 0
-7 -4 -4 -10z"/>
<path d="M3251 1373 c1 -10 4 -31 8 -48 l7 -30 5 32 c3 18 2 30 -3 27 -4 -3
-8 -1 -8 4 0 17 12 21 38 11 14 -6 29 -6 34 -1 5 5 3 9 -4 9 -7 0 -28 3 -45 7
-28 7 -33 5 -32 -11z"/>
<path d="M3352 1370 c0 -14 2 -19 5 -12 2 6 2 18 0 25 -3 6 -5 1 -5 -13z"/>
<path d="M3438 1383 c7 -3 16 -2 19 1 4 3 -2 6 -13 5 -11 0 -14 -3 -6 -6z"/>
<path d="M3608 1383 c6 -2 18 -2 25 0 6 3 1 5 -13 5 -14 0 -19 -2 -12 -5z"/>
<path d="M3073 1342 c2 -23 7 -45 12 -49 4 -5 5 12 2 35 -5 41 -4 44 16 38 56
-16 77 -18 77 -7 0 6 -8 11 -17 11 -10 0 -35 3 -56 7 l-38 6 4 -41z"/>
<path d="M3380 1366 c0 -8 4 -17 9 -20 5 -4 7 3 4 14 -6 23 -13 26 -13 6z"/>
<path d="M3201 1354 c0 -11 3 -14 6 -6 3 7 2 16 -1 19 -3 4 -6 -2 -5 -13z"/>
<path d="M3416 1328 c9 -59 16 -62 12 -5 -2 26 -6 47 -11 47 -4 0 -4 -19 -1
-42z"/>
<path d="M3450 1352 c0 -5 6 -9 13 -9 6 0 26 -4 42 -7 20 -5 25 -4 15 2 -23
14 -70 23 -70 14z"/>
<path d="M3110 1304 c0 -24 4 -44 8 -44 4 0 6 15 4 34 l-4 33 54 -5 c66 -6 61
3 -9 16 l-53 9 0 -43z"/>
<path d="M3300 1346 c0 -2 7 -6 15 -10 8 -3 15 -1 15 4 0 6 -7 10 -15 10 -8 0
-15 -2 -15 -4z"/>
<path d="M3730 1347 c0 -2 9 -14 20 -27 13 -15 20 -18 20 -9 0 8 -9 20 -20 27
-11 7 -20 11 -20 9z"/>
<path d="M3340 1336 c0 -2 7 -6 15 -10 8 -3 15 -1 15 4 0 6 -7 10 -15 10 -8 0
-15 -2 -15 -4z"/>
<path d="M3290 1306 c0 -16 2 -18 9 -7 5 7 13 11 18 8 4 -3 29 -8 53 -11 53
-6 45 -1 -27 17 -52 14 -53 13 -53 -7z"/>
<path d="M3452 1300 c0 -14 2 -19 5 -12 2 6 2 18 0 25 -3 6 -5 1 -5 -13z"/>
<path d="M3165 1301 c6 -5 28 -12 50 -15 27 -4 33 -3 20 2 -35 16 -81 24 -70
13z"/>
<path d="M3518 1303 c7 -3 16 -2 19 1 4 3 -2 6 -13 5 -11 0 -14 -3 -6 -6z"/>
<path d="M3302 1255 c0 -16 2 -22 5 -12 2 9 2 23 0 30 -3 6 -5 -1 -5 -18z"/>
<path d="M3331 1260 c0 -14 4 -32 9 -40 9 -13 10 -13 9 0 -1 8 -5 26 -9 40
l-8 25 -1 -25z"/>
<path d="M3355 1270 c3 -5 10 -10 16 -10 5 0 9 5 9 10 0 6 -7 10 -16 10 -8 0
-12 -4 -9 -10z"/>
<path d="M3198 1263 c7 -3 16 -2 19 1 4 3 -2 6 -13 5 -11 0 -14 -3 -6 -6z"/>
<path d="M3395 1260 c3 -5 8 -10 11 -10 2 0 4 5 4 10 0 6 -5 10 -11 10 -5 0
-7 -4 -4 -10z"/>
<path d="M3238 1253 c7 -3 16 -2 19 1 4 3 -2 6 -13 5 -11 0 -14 -3 -6 -6z"/>
<path d="M3270 1250 c0 -5 5 -10 11 -10 5 0 7 5 4 10 -3 6 -8 10 -11 10 -2 0
-4 -4 -4 -10z"/>
<path d="M3176 1237 c3 -10 9 -15 12 -12 3 3 0 11 -7 18 -10 9 -11 8 -5 -6z"/>
<path d="M3361 1234 c0 -11 3 -14 6 -6 3 7 2 16 -1 19 -3 4 -6 -2 -5 -13z"/>
<path d="M3395 1230 c3 -5 8 -10 11 -10 2 0 4 5 4 10 0 6 -5 10 -11 10 -5 0
-7 -4 -4 -10z"/>
<path d="M3255 1220 c11 -5 27 -9 35 -9 9 0 8 4 -5 9 -11 5 -27 9 -35 9 -9 0
-8 -4 5 -9z"/>
<path d="M3133 1203 c9 -2 23 -2 30 0 6 3 -1 5 -18 5 -16 0 -22 -2 -12 -5z"/>
<path d="M3371 1194 c0 -11 3 -14 6 -6 3 7 2 16 -1 19 -3 4 -6 -2 -5 -13z"/>
<path d="M3402 1190 c0 -14 2 -19 5 -12 2 6 2 18 0 25 -3 6 -5 1 -5 -13z"/>
<path d="M3741 1194 c0 -11 3 -14 6 -6 3 7 2 16 -1 19 -3 4 -6 -2 -5 -13z"/>
<path d="M3210 1189 c0 -5 5 -7 10 -4 6 3 10 8 10 11 0 2 -4 4 -10 4 -5 0 -10
-5 -10 -11z"/>
<path d="M3270 1186 c0 -6 9 -12 20 -12 11 0 20 3 20 7 0 4 -9 9 -20 12 -12 3
-20 0 -20 -7z"/>
<path d="M3438 1193 c7 -3 16 -2 19 1 4 3 -2 6 -13 5 -11 0 -14 -3 -6 -6z"/>
<path d="M3920 1180 c0 -5 5 -10 11 -10 5 0 7 5 4 10 -3 6 -8 10 -11 10 -2 0
-4 -4 -4 -10z"/>
<path d="M3252 1150 c0 -19 2 -27 5 -17 2 9 2 25 0 35 -3 9 -5 1 -5 -18z"/>
<path d="M3442 1150 c0 -14 2 -19 5 -12 2 6 2 18 0 25 -3 6 -5 1 -5 -13z"/>
<path d="M3282 1130 c0 -19 2 -27 5 -17 2 9 2 25 0 35 -3 9 -5 1 -5 -18z"/>
<path d="M3315 1150 c-3 -5 -1 -10 4 -10 6 0 11 5 11 10 0 6 -2 10 -4 10 -3 0
-8 -4 -11 -10z"/>
<path d="M3150 1140 c0 -5 10 -10 23 -10 18 0 19 2 7 10 -19 13 -30 13 -30 0z"/>
<path d="M3411 1134 c0 -11 3 -14 6 -6 3 7 2 16 -1 19 -3 4 -6 -2 -5 -13z"/>
<path d="M3130 1100 c0 -16 4 -30 8 -30 5 0 7 14 4 30 -2 17 -6 30 -8 30 -2 0
-4 -13 -4 -30z"/>
<path d="M3218 1123 c7 -3 16 -2 19 1 4 3 -2 6 -13 5 -11 0 -14 -3 -6 -6z"/>
<path d="M3095 1110 c3 -5 8 -10 11 -10 2 0 4 5 4 10 0 6 -5 10 -11 10 -5 0
-7 -4 -4 -10z"/>
<path d="M3160 1091 c5 -18 7 -38 4 -46 -3 -7 0 -16 7 -21 9 -5 10 4 5 37 -4
24 -11 48 -16 53 -6 6 -6 -3 0 -23z"/>
<path d="M3191 1083 c0 -15 5 -37 10 -48 6 -14 7 -9 3 21 l-5 40 38 -4 c47 -5
41 3 -9 12 -37 7 -38 6 -37 -21z"/>
<path d="M3320 1073 c0 -24 3 -33 9 -25 7 12 4 62 -5 62 -2 0 -4 -17 -4 -37z"/>
<path d="M3352 1065 c0 -16 2 -22 5 -12 2 9 2 23 0 30 -3 6 -5 -1 -5 -18z"/>
<path d="M3395 1070 c28 -12 37 -12 30 0 -3 6 -16 10 -28 9 -21 0 -21 -1 -2
-9z"/>
<path d="M3301 1054 c0 -11 3 -14 6 -6 3 7 2 16 -1 19 -3 4 -6 -2 -5 -13z"/>
<path d="M3598 1063 c7 -3 16 -2 19 1 4 3 -2 6 -13 5 -11 0 -14 -3 -6 -6z"/>
<path d="M3268 1053 c7 -3 16 -2 19 1 4 3 -2 6 -13 5 -11 0 -14 -3 -6 -6z"/>
<path d="M3390 1020 c0 -16 2 -30 4 -30 2 0 6 14 8 30 3 17 1 30 -4 30 -4 0
-8 -13 -8 -30z"/>
<path d="M3258 1013 c4 -20 7 -23 10 -10 2 9 9 17 15 17 7 0 6 4 -3 10 -24 15
-28 12 -22 -17z"/>
<path d="M3420 1030 c0 -5 7 -7 15 -4 8 4 15 8 15 10 0 2 -7 4 -15 4 -8 0 -15
-4 -15 -10z"/>
<path d="M3232 1010 c0 -14 2 -19 5 -12 2 6 2 18 0 25 -3 6 -5 1 -5 -13z"/>
<path d="M3300 1019 c0 -5 9 -9 20 -9 11 0 20 2 20 4 0 2 -9 6 -20 9 -11 3
-20 1 -20 -4z"/>
<path d="M3361 1014 c0 -11 3 -14 6 -6 3 7 2 16 -1 19 -3 4 -6 -2 -5 -13z"/>
<path d="M3701 1014 c0 -11 3 -14 6 -6 3 7 2 16 -1 19 -3 4 -6 -2 -5 -13z"/>
<path d="M3732 1010 c0 -14 2 -19 5 -12 2 6 2 18 0 25 -3 6 -5 1 -5 -13z"/>
<path d="M3450 999 c0 -5 11 -9 25 -9 14 0 25 2 25 4 0 2 -11 6 -25 8 -14 3
-25 1 -25 -3z"/>
<path d="M3610 999 c0 -5 5 -7 10 -4 6 3 10 8 10 11 0 2 -4 4 -10 4 -5 0 -10
-5 -10 -11z"/>
<path d="M3760 1000 c0 -5 7 -7 15 -4 8 4 15 8 15 10 0 2 -7 4 -15 4 -8 0 -15
-4 -15 -10z"/>
<path d="M3290 990 c8 -5 29 -9 45 -9 29 1 29 1 5 9 -14 4 -34 8 -45 9 -16 1
-17 -1 -5 -9z"/>
<path d="M4130 978 c-11 -12 -20 -26 -20 -31 0 -6 11 2 25 17 14 15 25 29 25
32 0 9 -10 3 -30 -18z"/>
<path d="M3615 970 c-3 -6 1 -7 9 -4 18 7 21 14 7 14 -6 0 -13 -4 -16 -10z"/>
<path d="M3742 960 c0 -14 2 -19 5 -12 2 6 2 18 0 25 -3 6 -5 1 -5 -13z"/>
<path d="M3772 955 c0 -16 2 -22 5 -12 2 9 2 23 0 30 -3 6 -5 -1 -5 -18z"/>
<path d="M4160 970 c0 -5 5 -10 11 -10 5 0 7 5 4 10 -3 6 -8 10 -11 10 -2 0
-4 -4 -4 -10z"/>
<path d="M3301 954 c0 -11 3 -14 6 -6 3 7 2 16 -1 19 -3 4 -6 -2 -5 -13z"/>
<path d="M3645 960 c-3 -6 1 -7 9 -4 18 7 21 14 7 14 -6 0 -13 -4 -16 -10z"/>
<path d="M3825 960 c11 -5 27 -9 35 -9 9 0 8 4 -5 9 -11 5 -27 9 -35 9 -9 0
-8 -4 5 -9z"/>
<path d="M3355 947 c22 -8 42 -12 44 -10 8 6 -5 11 -44 17 l-40 6 40 -13z"/>
<path d="M3520 950 c14 -4 32 -8 40 -9 13 -1 13 0 0 9 -8 5 -26 9 -40 9 l-25
-1 25 -8z"/>
<path d="M3688 953 c7 -3 16 -2 19 1 4 3 -2 6 -13 5 -11 0 -14 -3 -6 -6z"/>
<path d="M4235 950 c-4 -6 -11 -8 -16 -5 -5 4 -9 -2 -9 -12 0 -11 -5 -24 -12
-31 -6 -6 -9 -14 -6 -18 3 -3 14 8 24 25 10 17 24 31 31 31 7 0 13 5 13 10 0
13 -17 13 -25 0z"/>
<path d="M3340 890 l4 -45 6 37 c4 30 8 36 20 28 18 -12 30 -13 30 -2 0 4 -15
12 -32 17 l-33 10 5 -45z"/>
<path d="M3312 905 c0 -16 2 -22 5 -12 2 9 2 23 0 30 -3 6 -5 -1 -5 -18z"/>
<path d="M3508 923 c6 -2 18 -2 25 0 6 3 1 5 -13 5 -14 0 -19 -2 -12 -5z"/>
<path d="M3195 910 c7 -11 45 -20 45 -10 0 4 -11 10 -25 12 -13 3 -22 2 -20
-2z"/>
<path d="M3812 900 c0 -14 2 -19 5 -12 2 6 2 18 0 25 -3 6 -5 1 -5 -13z"/>
<path d="M4165 883 c0 -20 6 -38 13 -40 6 -3 12 0 12 7 0 6 5 8 13 3 20 -12
55 -14 62 -3 3 6 0 7 -10 4 -12 -5 -14 -2 -8 12 6 17 5 17 -9 6 -22 -17 -58 1
-58 28 0 11 -3 20 -7 20 -5 0 -8 -16 -8 -37z"/>
<path d="M3410 906 c0 -2 9 -6 20 -9 11 -3 20 -1 20 4 0 5 -9 9 -20 9 -11 0
-20 -2 -20 -4z"/>
<path d="M3180 876 c0 -28 -6 -30 -62 -17 -28 7 -35 6 -31 -4 2 -8 26 -15 59
-17 53 -3 54 -2 54 24 0 15 -4 30 -10 33 -6 4 -10 -5 -10 -19z"/>
<path d="M3250 896 c0 -2 9 -6 20 -9 11 -3 20 -1 20 4 0 5 -9 9 -20 9 -11 0
-20 -2 -20 -4z"/>
<path d="M3372 880 c0 -14 2 -19 5 -12 2 6 2 18 0 25 -3 6 -5 1 -5 -13z"/>
<path d="M3214 859 c3 -17 6 -40 6 -50 0 -11 4 -19 9 -19 5 0 7 17 4 39 -5 38
-5 39 23 33 36 -6 29 2 -15 16 l-33 12 6 -31z"/>
<path d="M3565 880 c3 -5 8 -10 11 -10 2 0 4 5 4 10 0 6 -5 10 -11 10 -5 0 -7
-4 -4 -10z"/>
<path d="M3871 886 c2 -2 20 -6 39 -10 25 -4 31 -3 20 4 -14 9 -69 15 -59 6z"/>
<path d="M3150 870 c0 -5 5 -10 10 -10 6 0 10 5 10 10 0 6 -4 10 -10 10 -5 0
-10 -4 -10 -10z"/>
<path d="M3608 873 c6 -2 18 -2 25 0 6 3 1 5 -13 5 -14 0 -19 -2 -12 -5z"/>
<path d="M3692 860 c0 -14 2 -19 5 -12 2 6 2 18 0 25 -3 6 -5 1 -5 -13z"/>
<path d="M4140 856 c0 -8 -5 -16 -11 -18 -6 -2 -1 -14 10 -27 12 -13 21 -19
21 -13 0 6 -5 14 -10 17 -6 3 -7 17 -4 31 3 13 3 24 0 24 -3 0 -6 -6 -6 -14z"/>
<path d="M3750 845 c0 -8 2 -15 4 -15 2 0 6 7 10 15 3 8 1 15 -4 15 -6 0 -10
-7 -10 -15z"/>
<path d="M2937 844 c9 -4 10 -11 3 -25 -7 -13 -7 -19 0 -19 5 0 10 7 10 16 0
11 8 14 32 12 17 -2 33 2 34 7 2 6 -17 11 -44 12 -26 1 -41 -1 -35 -3z"/>
<path d="M3250 822 c0 -18 5 -32 10 -32 6 0 9 11 7 25 -5 37 -17 42 -17 7z"/>
<path d="M3382 825 c0 -16 2 -22 5 -12 2 9 2 23 0 30 -3 6 -5 -1 -5 -18z"/>
<path d="M3412 830 c0 -14 2 -19 5 -12 2 6 2 18 0 25 -3 6 -5 1 -5 -13z"/>
<path d="M3072 810 c0 -19 2 -27 5 -17 2 9 2 25 0 35 -3 9 -5 1 -5 -18z"/>
<path d="M3346 825 c-3 -9 0 -15 9 -15 9 0 12 6 9 15 -4 8 -7 15 -9 15 -2 0
-5 -7 -9 -15z"/>
<path d="M3099 818 c-3 -30 3 -64 13 -73 7 -7 8 4 3 34 -4 25 -3 41 2 38 13
-8 16 -87 3 -87 -6 0 -8 -4 -5 -10 3 -5 15 -10 25 -10 16 0 17 4 9 32 -5 18
-9 35 -9 37 0 2 11 0 25 -3 14 -4 25 -2 25 4 0 5 -9 10 -19 10 -11 0 -22 4
-25 8 -2 4 11 6 30 4 19 -2 34 0 34 5 0 5 -6 10 -12 10 -7 0 -32 3 -55 7 -33
6 -43 5 -44 -6z"/>
<path d="M3308 823 c7 -3 16 -2 19 1 4 3 -2 6 -13 5 -11 0 -14 -3 -6 -6z"/>
<path d="M3488 823 c6 -2 18 -2 25 0 6 3 1 5 -13 5 -14 0 -19 -2 -12 -5z"/>
<path d="M3732 800 c0 -14 2 -19 5 -12 2 6 2 18 0 25 -3 6 -5 1 -5 -13z"/>
<path d="M3638 803 c7 -3 16 -2 19 1 4 3 -2 6 -13 5 -11 0 -14 -3 -6 -6z"/>
<path d="M3761 794 c0 -11 3 -14 6 -6 3 7 2 16 -1 19 -3 4 -6 -2 -5 -13z"/>
<path d="M3688 793 c7 -3 16 -2 19 1 4 3 -2 6 -13 5 -11 0 -14 -3 -6 -6z"/>
<path d="M3360 786 c0 -2 7 -6 15 -10 8 -3 15 -1 15 4 0 6 -7 10 -15 10 -8 0
-15 -2 -15 -4z"/>
<path d="M3015 762 c-3 -8 -3 -17 0 -20 3 -3 5 0 5 7 0 10 10 11 35 7 20 -4
35 -3 35 2 0 17 -69 20 -75 4z"/>
<path d="M3205 770 c3 -5 12 -7 20 -3 21 7 19 13 -6 13 -11 0 -18 -4 -14 -10z"/>
<path d="M3263 758 c2 -15 6 -30 10 -34 10 -10 8 17 -3 41 -8 17 -9 16 -7 -7z"/>
<path d="M3292 750 c0 -19 2 -27 5 -17 2 9 2 25 0 35 -3 9 -5 1 -5 -18z"/>
<path d="M3350 750 c0 -5 5 -10 10 -10 6 0 10 5 10 10 0 6 -4 10 -10 10 -5 0
-10 -4 -10 -10z"/>
<path d="M3802 735 c0 -16 2 -22 5 -12 2 9 2 23 0 30 -3 6 -5 -1 -5 -18z"/>
<path d="M3333 713 c2 -37 0 -43 -18 -44 -18 0 -17 -1 4 -10 13 -5 25 -8 27
-6 2 1 -1 25 -6 52 -9 49 -9 50 -7 8z"/>
<path d="M3671 734 c0 -11 3 -14 6 -6 3 7 2 16 -1 19 -3 4 -6 -2 -5 -13z"/>
<path d="M3831 734 c0 -11 3 -14 6 -6 3 7 2 16 -1 19 -3 4 -6 -2 -5 -13z"/>
<path d="M3055 730 c28 -12 47 -12 40 0 -3 6 -18 10 -33 9 -24 0 -25 -1 -7 -9z"/>
<path d="M3701 724 c0 -11 3 -14 6 -6 3 7 2 16 -1 19 -3 4 -6 -2 -5 -13z"/>
<path d="M3361 701 c-1 -24 2 -32 9 -25 7 7 7 19 1 35 -9 23 -10 22 -10 -10z"/>
<path d="M3208 714 c-5 -4 -8 -23 -7 -43 0 -34 1 -34 10 -11 11 27 8 66 -3 54z"/>
<path d="M3231 698 c1 -13 5 -34 9 -48 6 -20 8 -15 7 23 0 26 -4 47 -9 47 -4
0 -8 -10 -7 -22z"/>
<path d="M3050 703 c0 -5 8 -9 18 -9 9 -1 34 -4 55 -9 25 -5 37 -4 37 4 0 6
-11 11 -24 11 -13 0 -38 3 -55 6 -17 4 -31 2 -31 -3z"/>
<path d="M3280 700 c0 -5 5 -10 11 -10 5 0 7 5 4 10 -3 6 -8 10 -11 10 -2 0
-4 -4 -4 -10z"/>
<path d="M3730 700 c0 -5 5 -10 11 -10 5 0 7 5 4 10 -3 6 -8 10 -11 10 -2 0
-4 -4 -4 -10z"/>
<path d="M3712 685 c0 -11 4 -31 8 -45 l8 -25 0 25 c0 14 -3 34 -8 45 l-9 20
1 -20z"/>
<path d="M3780 660 c8 -5 22 -10 30 -10 13 0 13 1 0 10 -8 5 -22 10 -30 10
-13 0 -13 -1 0 -10z"/>
<path d="M3402 640 c0 -14 2 -19 5 -12 2 6 2 18 0 25 -3 6 -5 1 -5 -13z"/>
<path d="M3430 640 c0 -11 2 -20 4 -20 2 0 6 9 9 20 3 11 1 20 -4 20 -5 0 -9
-9 -9 -20z"/>
<path d="M3270 630 c0 -11 4 -20 9 -20 5 0 7 9 4 20 -3 11 -7 20 -9 20 -2 0
-4 -9 -4 -20z"/>
<path d="M3298 627 c3 -12 7 -16 10 -9 2 8 13 10 30 6 36 -9 23 4 -15 15 -28
8 -30 7 -25 -12z"/>
<path d="M3648 643 c6 -2 18 -2 25 0 6 3 1 5 -13 5 -14 0 -19 -2 -12 -5z"/>
<path d="M3752 620 c0 -19 2 -27 5 -17 2 9 2 25 0 35 -3 9 -5 1 -5 -18z"/>
<path d="M3781 624 c0 -11 3 -14 6 -6 3 7 2 16 -1 19 -3 4 -6 -2 -5 -13z"/>
<path d="M3828 623 c7 -3 16 -2 19 1 4 3 -2 6 -13 5 -11 0 -14 -3 -6 -6z"/>
<path d="M3240 610 c0 -5 5 -10 10 -10 6 0 10 5 10 10 0 6 -4 10 -10 10 -5 0
-10 -4 -10 -10z"/>
<path d="M3620 605 c0 -8 4 -15 10 -15 5 0 7 7 4 15 -4 8 -8 15 -10 15 -2 0
-4 -7 -4 -15z"/>
<path d="M3658 613 c7 -3 16 -2 19 1 4 3 -2 6 -13 5 -11 0 -14 -3 -6 -6z"/>
<path d="M3329 601 c9 -6 15 -30 17 -62 1 -29 6 -55 12 -57 6 -2 7 13 2 38 -6
31 -4 40 7 40 8 0 12 -4 9 -8 -2 -4 0 -14 6 -22 8 -12 9 -11 4 4 -6 17 -2 18
31 13 25 -4 33 -3 23 3 -8 5 -32 12 -53 16 -26 4 -37 10 -33 19 2 7 -2 16 -10
19 -23 9 -31 7 -15 -3z"/>
<path d="M3442 590 c0 -14 2 -19 5 -12 2 6 2 18 0 25 -3 6 -5 1 -5 -13z"/>
<path d="M3516 598 c3 -4 14 -8 25 -8 11 0 18 4 14 9 -3 6 -14 9 -25 8 -10 -1
-16 -5 -14 -9z"/>
<path d="M3718 603 c7 -3 16 -2 19 1 4 3 -2 6 -13 5 -11 0 -14 -3 -6 -6z"/>
<path d="M3810 600 c0 -5 5 -10 11 -10 5 0 7 5 4 10 -3 6 -8 10 -11 10 -2 0
-4 -4 -4 -10z"/>
<path d="M3162 595 c9 -10 108 -32 108 -25 0 4 -20 13 -44 19 -48 12 -72 14
-64 6z"/>
<path d="M3380 590 c0 -6 7 -10 15 -10 8 0 15 2 15 4 0 2 -7 6 -15 10 -8 3
-15 1 -15 -4z"/>
<path d="M3590 590 c0 -5 5 -10 11 -10 5 0 7 5 4 10 -3 6 -8 10 -11 10 -2 0
-4 -4 -4 -10z"/>
<path d="M3792 580 c0 -14 2 -19 5 -12 2 6 2 18 0 25 -3 6 -5 1 -5 -13z"/>
<path d="M3281 574 c0 -11 3 -14 6 -6 3 7 2 16 -1 19 -3 4 -6 -2 -5 -13z"/>
<path d="M3310 557 c0 -14 5 -29 10 -32 7 -4 8 3 4 22 -9 38 -14 42 -14 10z"/>
<path d="M3508 573 c7 -3 16 -2 19 1 4 3 -2 6 -13 5 -11 0 -14 -3 -6 -6z"/>
<path d="M3703 573 c9 -2 25 -2 35 0 9 3 1 5 -18 5 -19 0 -27 -2 -17 -5z"/>
<path d="M3125 560 c-3 -5 -1 -10 4 -10 6 0 11 5 11 10 0 6 -2 10 -4 10 -3 0
-8 -4 -11 -10z"/>
<path d="M3177 549 c-9 -10 -13 -19 -7 -19 5 0 12 5 16 11 6 10 49 7 97 -7 9
-3 17 -2 17 3 0 5 -13 10 -30 11 -16 1 -40 6 -53 11 -19 7 -28 5 -40 -10z"/>
<path d="M3555 560 c11 -5 31 -8 45 -8 l25 0 -25 8 c-14 4 -34 8 -45 8 l-20 1
20 -9z"/>
<path d="M3690 545 c0 -8 4 -15 10 -15 5 0 7 7 4 15 -4 8 -8 15 -10 15 -2 0
-4 -7 -4 -15z"/>
<path d="M3731 537 c-17 -17 -14 -37 5 -30 12 4 13 8 3 13 -8 6 -4 9 12 12 19
2 20 5 8 10 -9 3 -22 1 -28 -5z"/>
<path d="M3203 533 c-7 -3 -13 -9 -13 -15 0 -7 5 -7 13 1 19 15 27 3 17 -25
-6 -15 -6 -24 0 -24 6 0 10 6 10 14 0 8 3 21 6 29 6 16 -13 27 -33 20z"/>
<path d="M3590 525 c30 -7 57 -12 58 -10 6 5 -71 25 -93 24 -11 0 5 -7 35 -14z"/>
<path d="M3405 520 c3 -5 10 -10 16 -10 5 0 9 5 9 10 0 6 -7 10 -16 10 -8 0
-12 -4 -9 -10z"/>
<path d="M3512 510 c0 -14 2 -19 5 -12 2 6 2 18 0 25 -3 6 -5 1 -5 -13z"/>
<path d="M3660 519 c0 -5 5 -7 10 -4 6 3 10 8 10 11 0 2 -4 4 -10 4 -5 0 -10
-5 -10 -11z"/>
<path d="M3260 512 c25 -15 70 -23 70 -12 0 5 -8 10 -17 10 -10 0 -29 3 -43 6
-18 4 -21 3 -10 -4z"/>
<path d="M3383 495 c0 -8 4 -12 9 -9 5 3 6 10 3 15 -9 13 -12 11 -12 -6z"/>
<path d="M3702 490 c0 -14 2 -19 5 -12 2 6 2 18 0 25 -3 6 -5 1 -5 -13z"/>
<path d="M3250 485 c0 -12 -5 -26 -12 -33 -9 -9 -9 -12 0 -12 7 0 13 6 13 13
1 6 4 -1 8 -18 6 -25 8 -27 12 -10 3 11 0 34 -7 50 -10 24 -13 26 -14 10z"/>
<path d="M3600 490 c8 -5 26 -9 40 -9 23 0 23 1 5 9 -11 5 -29 9 -40 9 -17 1
-17 -1 -5 -9z"/>
<path d="M3276 481 c6 -6 21 -13 33 -16 12 -2 31 -7 42 -10 10 -4 19 -2 19 3
0 5 -15 12 -32 15 -18 3 -42 9 -53 13 -15 5 -17 4 -9 -5z"/>
<path d="M3424 483 c-7 -5 -8 -16 -3 -28 7 -19 8 -18 8 4 1 20 5 22 26 17 63
-15 80 -17 65 -8 -22 15 -83 24 -96 15z"/>
<path d="M3579 452 c5 -34 6 -35 9 -8 2 16 0 32 -5 37 -5 5 -7 -7 -4 -29z"/>
<path d="M3607 469 c7 -7 15 -10 18 -7 3 3 -2 9 -12 12 -14 6 -15 5 -6 -5z"/>
<path d="M3391 454 c0 -11 3 -14 6 -6 3 7 2 16 -1 19 -3 4 -6 -2 -5 -13z"/>
<path d="M3452 440 c0 -14 2 -19 5 -12 2 6 2 18 0 25 -3 6 -5 1 -5 -13z"/>
<path d="M3658 453 c7 -3 16 -2 19 1 4 3 -2 6 -13 5 -11 0 -14 -3 -6 -6z"/>
<path d="M3478 443 c7 -3 16 -2 19 1 4 3 -2 6 -13 5 -11 0 -14 -3 -6 -6z"/>
<path d="M3510 440 c0 -5 5 -10 11 -10 5 0 7 5 4 10 -3 6 -8 10 -11 10 -2 0
-4 -4 -4 -10z"/>
<path d="M3425 420 c-3 -5 -1 -10 4 -10 6 0 11 5 11 10 0 6 -2 10 -4 10 -3 0
-8 -4 -11 -10z"/>
<path d="M3607 415 c4 -13 0 -15 -21 -11 -15 3 -24 1 -21 -5 4 -5 17 -9 31 -9
17 0 24 5 24 20 0 11 -4 20 -10 20 -5 0 -7 -7 -3 -15z"/>
<path d="M3490 395 c0 -14 2 -25 4 -25 2 0 6 11 8 25 3 14 1 25 -3 25 -5 0 -9
-11 -9 -25z"/>
<path d="M3350 400 c0 -5 10 -10 23 -10 12 0 33 -3 47 -5 16 -3 12 0 -10 9
-42 18 -60 19 -60 6z"/>
<path d="M3462 390 c0 -14 2 -19 5 -12 2 6 2 18 0 25 -3 6 -5 1 -5 -13z"/>
<path d="M3520 400 c0 -5 7 -7 15 -4 8 4 15 8 15 10 0 2 -7 4 -15 4 -8 0 -15
-4 -15 -10z"/>
<path d="M3362 355 c0 -16 2 -22 5 -12 2 9 2 23 0 30 -3 6 -5 -1 -5 -18z"/>
<path d="M3548 353 c4 -20 7 -23 10 -10 2 9 10 17 18 17 8 0 14 5 14 10 0 6
-11 10 -24 10 -20 0 -22 -4 -18 -27z"/>
<path d="M3428 353 c7 -3 16 -2 19 1 4 3 -2 6 -13 5 -11 0 -14 -3 -6 -6z"/>
<path d="M3403 300 c0 -25 2 -35 4 -22 2 12 2 32 0 45 -2 12 -4 2 -4 -23z"/>
<path d="M3520 326 c0 -9 5 -16 10 -16 6 0 10 4 10 9 0 6 -4 13 -10 16 -5 3
-10 -1 -10 -9z"/>
<path d="M3371 304 c0 -11 3 -14 6 -6 3 7 2 16 -1 19 -3 4 -6 -2 -5 -13z"/>
<path d="M3495 310 c3 -5 8 -10 11 -10 2 0 4 5 4 10 0 6 -5 10 -11 10 -5 0 -7
-4 -4 -10z"/>
<path d="M3536 292 c-3 -5 -20 -7 -38 -6 l-33 3 31 -8 c17 -4 36 -11 42 -15 8
-5 12 0 12 13 0 22 -5 27 -14 13z"/>
<path d="M3471 240 c-1 -14 3 -31 8 -38 15 -25 20 11 5 39 l-13 24 0 -25z"/>
<path d="M3580 239 c0 -5 5 -7 10 -4 6 3 10 8 10 11 0 2 -4 4 -10 4 -5 0 -10
-5 -10 -11z"/>
<path d="M3510 231 c0 -6 9 -15 19 -20 14 -8 22 -7 31 4 8 9 8 15 2 15 -6 0
-12 -5 -14 -11 -3 -8 -10 -6 -21 5 -9 10 -17 13 -17 7z"/>
<path d="M3570 200 c-6 -11 -8 -20 -6 -20 3 0 10 9 16 20 6 11 8 20 6 20 -3 0
-10 -9 -16 -20z"/>
<path d="M3645 150 c3 -5 8 -10 11 -10 2 0 4 5 4 10 0 6 -5 10 -11 10 -5 0 -7
-4 -4 -10z"/>
<path d="M3621 107 c2 -1 15 -11 29 -22 l25 -20 -19 23 c-11 12 -24 22 -29 22
-6 0 -8 -1 -6 -3z"/>
<path d="M3590 30 c0 -5 5 -10 11 -10 5 0 7 5 4 10 -3 6 -8 10 -11 10 -2 0 -4
-4 -4 -10z"/>
<path d="M4782 1350 c0 -14 2 -19 5 -12 2 6 2 18 0 25 -3 6 -5 1 -5 -13z"/>
<path d="M4833 1346 c-13 -6 -23 -14 -23 -18 0 -5 -6 -8 -14 -8 -8 0 -18 -5
-21 -11 -4 -5 10 -3 30 5 27 12 41 13 54 5 14 -9 14 -10 0 -6 -9 3 -34 -5 -55
-19 -22 -13 -33 -24 -26 -24 7 0 23 7 36 16 16 10 26 12 31 5 3 -6 11 -11 17
-11 6 0 8 3 5 7 -4 3 0 15 10 25 15 17 15 18 -5 18 -15 0 -20 5 -16 15 7 17 7
17 -23 1z"/>
<path d="M4722 1323 c-18 -8 -31 -18 -28 -20 5 -5 66 25 66 32 0 7 -1 7 -38
-12z"/>
<path d="M4620 1312 c0 -5 7 -15 15 -22 8 -7 15 -18 15 -26 0 -7 4 -15 10 -19
14 -9 -9 52 -26 66 -8 7 -14 7 -14 1z"/>
<path d="M4666 1297 c3 -10 9 -15 12 -12 3 3 0 11 -7 18 -10 9 -11 8 -5 -6z"/>
<path d="M4705 1280 c-16 -11 -25 -20 -20 -20 10 0 64 39 55 40 -3 0 -18 -9
-35 -20z"/>
<path d="M4698 1244 c-38 -20 -36 -28 2 -9 17 9 30 18 30 20 0 7 -1 6 -32 -11z"/>
<path d="M4785 1250 c-3 -5 -2 -10 4 -10 5 0 13 5 16 10 3 6 2 10 -4 10 -5 0
-13 -4 -16 -10z"/>
<path d="M4742 1230 c0 -14 2 -19 5 -12 2 6 2 18 0 25 -3 6 -5 1 -5 -13z"/>
<path d="M4610 1234 c0 -7 7 -27 15 -45 8 -19 14 -29 15 -23 0 7 -7 27 -15 45
-8 19 -14 29 -15 23z"/>
<path d="M4778 1216 c-26 -19 -22 -30 4 -12 29 20 38 20 38 -1 0 -14 3 -14 12
-5 10 10 10 15 -2 22 -20 13 -32 12 -52 -4z"/>
<path d="M4565 1205 c-20 -16 -20 -16 0 -6 16 8 22 5 32 -12 7 -12 12 -17 13
-11 0 5 -6 18 -13 27 -11 16 -14 16 -32 2z"/>
<path d="M4670 1195 c-14 -8 -20 -14 -15 -14 6 0 21 6 35 14 14 8 21 14 15 14
-5 0 -21 -6 -35 -14z"/>
<path d="M4771 1181 c-13 -10 -21 -23 -17 -29 4 -6 -6 -18 -21 -26 -15 -8 -23
-15 -18 -16 6 0 23 7 40 16 27 14 31 14 41 -1 8 -11 14 -12 19 -6 10 16 -21
42 -42 35 -17 -5 -17 -5 1 10 10 8 23 13 27 10 5 -3 9 2 9 10 0 21 -9 20 -39
-3z"/>
<path d="M4865 1190 c-8 -13 5 -13 25 0 13 8 13 10 -2 10 -9 0 -20 -4 -23 -10z"/>
<path d="M4556 1175 c-11 -8 -15 -15 -9 -15 6 0 16 7 23 15 16 19 11 19 -14 0z"/>
<path d="M4828 1173 c7 -3 16 -2 19 1 4 3 -2 6 -13 5 -11 0 -14 -3 -6 -6z"/>
<path d="M4610 1146 c0 -8 4 -17 9 -20 5 -4 7 3 4 14 -6 23 -13 26 -13 6z"/>
<path d="M4711 1144 c0 -11 3 -14 6 -6 3 7 2 16 -1 19 -3 4 -6 -2 -5 -13z"/>
<path d="M4835 1140 c-3 -5 -2 -10 4 -10 5 0 13 5 16 10 3 6 2 10 -4 10 -5 0
-13 -4 -16 -10z"/>
<path d="M4530 1125 c-11 -13 -10 -14 4 -9 9 3 16 10 16 15 0 13 -6 11 -20 -6z"/>
<path d="M4640 1115 c-14 -8 -20 -14 -15 -14 6 0 21 6 35 14 14 8 21 14 15 14
-5 0 -21 -6 -35 -14z"/>
<path d="M4770 1111 c0 -5 5 -13 10 -16 6 -3 10 -2 10 4 0 5 -4 13 -10 16 -5
3 -10 2 -10 -4z"/>
<path d="M4820 1099 l-25 -20 35 17 c43 20 47 24 29 24 -8 0 -25 -10 -39 -21z"/>
<path d="M4601 1094 c0 -11 3 -14 6 -6 3 7 2 16 -1 19 -3 4 -6 -2 -5 -13z"/>
<path d="M4736 1094 c-11 -7 -18 -16 -15 -18 2 -2 13 2 23 10 11 7 18 16 15
18 -2 2 -13 -2 -23 -10z"/>
<path d="M4525 1090 c-3 -6 1 -7 9 -4 18 7 21 14 7 14 -6 0 -13 -4 -16 -10z"/>
<path d="M4701 1084 c0 -11 3 -14 6 -6 3 7 2 16 -1 19 -3 4 -6 -2 -5 -13z"/>
<path d="M4912 1078 c-18 -11 -31 -22 -29 -25 7 -6 77 29 77 39 0 12 -11 9
-48 -14z"/>
<path d="M4640 1080 c-8 -5 -10 -10 -5 -10 6 0 17 5 25 10 8 5 11 10 5 10 -5
0 -17 -5 -25 -10z"/>
<path d="M4833 1078 c-31 -15 -29 -30 2 -16 14 6 25 15 25 20 0 9 1 10 -27 -4z"/>
<path d="M4737 1062 c-15 -9 -27 -20 -27 -25 0 -5 13 1 29 12 22 16 31 18 34
9 4 -9 6 -10 6 -1 2 20 -13 22 -42 5z"/>
<path d="M4640 1045 c-7 -8 -9 -15 -6 -15 4 0 14 7 22 15 9 8 11 15 6 15 -5 0
-15 -7 -22 -15z"/>
<path d="M4906 1041 c-21 -10 -34 -21 -29 -24 8 -5 73 29 73 39 0 6 -1 5 -44
-15z"/>
<path d="M4401 1031 c9 -6 20 -22 23 -36 4 -14 11 -25 17 -25 15 0 -23 63 -41
67 -11 3 -11 2 1 -6z"/>
<path d="M4671 1029 c-1 -9 4 -30 10 -47 l11 -32 29 21 c19 13 29 16 29 8 0
-7 3 -10 6 -6 3 3 3 11 -1 17 -5 8 -14 6 -32 -5 -29 -19 -28 -20 -41 25 -6 19
-11 28 -11 19z"/>
<path d="M4728 1022 c-16 -9 -28 -20 -28 -25 0 -7 37 15 69 40 15 11 -19 -1
-41 -15z"/>
<path d="M4809 1023 c-13 -15 -12 -15 9 -4 23 12 28 21 13 21 -5 0 -15 -7 -22
-17z"/>
<path d="M4571 1014 c0 -11 3 -14 6 -6 3 7 2 16 -1 19 -3 4 -6 -2 -5 -13z"/>
<path d="M4600 1020 c-9 -6 -10 -10 -3 -10 6 0 15 5 18 10 8 12 4 12 -15 0z"/>
<path d="M4910 1011 c-13 -11 -29 -17 -34 -14 -5 3 -6 1 -2 -5 5 -9 15 -8 35
3 16 8 32 11 35 7 4 -3 4 1 0 11 -7 20 -4 21 -34 -2z"/>
<path d="M4496 1005 c-11 -8 -16 -15 -10 -15 5 0 18 7 28 15 11 8 16 15 10 15
-5 0 -18 -7 -28 -15z"/>
<path d="M4651 1010 c0 -8 6 -28 14 -45 17 -39 18 -21 0 25 -7 19 -14 28 -14
20z"/>
<path d="M4760 1011 c0 -6 4 -13 10 -16 6 -3 7 1 4 9 -7 18 -14 21 -14 7z"/>
<path d="M4813 997 c-45 -23 -56 -38 -47 -61 5 -12 11 -12 37 4 17 10 34 17
39 14 4 -3 5 2 2 10 -5 14 -9 13 -31 -4 -14 -11 -30 -20 -34 -20 -20 0 -6 17
36 43 25 16 45 31 45 33 0 6 0 6 -47 -19z"/>
<path d="M4551 1000 c0 -8 4 -22 9 -30 12 -18 12 -2 0 25 -6 13 -9 15 -9 5z"/>
<path d="M4608 994 c-16 -8 -28 -17 -28 -19 0 -10 16 -4 40 15 30 23 25 25
-12 4z"/>
<path d="M4400 980 c0 -5 5 -10 11 -10 5 0 7 5 4 10 -3 6 -8 10 -11 10 -2 0
-4 -4 -4 -10z"/>
<path d="M4903 969 c-43 -27 -42 -33 2 -12 19 9 35 20 35 25 0 11 0 11 -37
-13z"/>
<path d="M4480 965 c-17 -10 -20 -14 -9 -15 9 0 22 7 29 15 15 18 12 18 -20 0z"/>
<path d="M4593 951 c-17 -11 -34 -17 -37 -14 -3 4 -6 1 -6 -5 0 -7 3 -12 6
-12 9 0 74 41 74 46 0 6 -3 5 -37 -15z"/>
<path d="M4636 955 c-3 -10 -4 -20 -1 -23 3 -3 5 1 5 9 0 11 2 11 10 -1 5 -8
10 -22 10 -30 0 -13 -1 -13 -10 0 -13 20 -13 4 1 -21 10 -19 11 -19 50 3 21
12 39 26 39 31 0 6 -8 3 -17 -5 -10 -9 -29 -21 -41 -28 -22 -11 -23 -10 -17 9
3 11 0 32 -8 47 -12 23 -15 24 -21 9z"/>
<path d="M4310 950 c-12 -7 -10 -9 7 -7 12 0 19 5 17 9 -6 10 -6 10 -24 -2z"/>
<path d="M4705 938 c-16 -11 -21 -17 -10 -13 11 4 28 10 38 12 9 3 17 9 17 14
0 13 -11 10 -45 -13z"/>
<path d="M4385 940 c3 -5 11 -10 16 -10 6 0 7 5 4 10 -3 6 -11 10 -16 10 -6 0
-7 -4 -4 -10z"/>
<path d="M4584 915 c-10 -8 -14 -15 -8 -15 5 0 19 7 30 15 10 8 14 15 8 15 -5
0 -19 -7 -30 -15z"/>
<path d="M4794 916 c-10 -8 -17 -17 -14 -19 3 -3 16 3 30 13 29 22 14 27 -16
6z"/>
<path d="M4617 904 c-3 -5 1 -15 9 -22 16 -14 18 -5 5 17 -5 7 -11 9 -14 5z"/>
<path d="M4885 885 l-30 -25 37 17 c21 10 38 21 38 26 0 13 -15 7 -45 -18z"/>
<path d="M4755 889 c-4 -6 -5 -12 -2 -15 2 -3 7 2 10 11 7 17 1 20 -8 4z"/>
<path d="M4803 888 c-13 -6 -23 -15 -23 -20 0 -10 36 7 45 22 7 12 7 12 -22
-2z"/>
<path d="M4694 865 c-25 -19 -14 -19 22 0 16 8 22 15 13 15 -8 0 -24 -7 -35
-15z"/>
<path d="M4880 855 c-39 -28 -34 -33 10 -10 17 9 30 20 30 25 0 13 1 13 -40
-15z"/>
<path d="M4796 849 c-16 -10 -34 -15 -39 -12 -6 3 -7 1 -4 -5 8 -12 34 -6 61
14 29 21 15 24 -18 3z"/>
<path d="M4796 815 c-11 -8 -15 -15 -10 -15 6 0 19 7 30 15 10 8 15 14 9 14
-5 0 -19 -6 -29 -14z"/>
<path d="M4810 790 c0 -5 5 -10 11 -10 5 0 7 5 4 10 -3 6 -8 10 -11 10 -2 0
-4 -4 -4 -10z"/>
<path d="M5167 423 c-4 -3 -7 -13 -7 -22 1 -13 3 -13 11 2 11 19 8 33 -4 20z"/>
<path d="M5176 375 c-3 -9 -6 -22 -5 -28 0 -7 5 -1 10 12 5 13 8 26 5 28 -2 2
-6 -3 -10 -12z"/>
<path d="M5230 349 c0 -5 5 -7 10 -4 6 3 10 8 10 11 0 2 -4 4 -10 4 -5 0 -10
-5 -10 -11z"/>
<path d="M5211 318 c0 -9 -4 -25 -7 -35 -5 -17 -5 -17 6 0 6 10 9 25 7 35 -4
15 -5 15 -6 0z"/>
<path d="M5257 273 c-10 -9 -9 -23 2 -23 5 0 11 7 15 15 5 15 -5 20 -17 8z"/>
<path d="M5026 245 c-3 -9 -6 -22 -5 -28 0 -7 5 -1 10 12 5 13 8 26 5 28 -2 2
-6 -3 -10 -12z"/>
<path d="M5260 222 c0 -5 7 -15 15 -22 8 -7 15 -9 15 -6 0 4 -7 14 -15 22 -8
9 -15 11 -15 6z"/>
<path d="M5051 213 c-1 -6 -4 -20 -7 -30 -5 -17 -5 -17 6 0 6 10 9 23 6 30 -3
9 -5 9 -5 0z"/>
<path d="M5072 180 c0 -14 2 -19 5 -12 2 6 2 18 0 25 -3 6 -5 1 -5 -13z"/>
<path d="M4780 169 c-6 -11 -10 -28 -8 -37 2 -10 8 -1 15 21 12 41 10 48 -7
16z"/>
<path d="M5277 166 c-10 -8 -14 -16 -10 -19 5 -3 14 3 21 14 14 22 13 23 -11
5z"/>
<path d="M5127 157 c-3 -8 -1 -20 5 -28 8 -11 9 -11 5 2 -3 9 0 22 6 28 8 8 8
11 0 11 -6 0 -13 -6 -16 -13z"/>
<path d="M4796 138 c-8 -31 -8 -53 1 -45 7 7 15 67 9 67 -2 0 -6 -10 -10 -22z"/>
<path d="M5055 129 c-6 -17 -9 -19 -16 -8 -6 10 -8 8 -7 -8 1 -12 7 -19 15
-16 13 5 28 41 20 50 -3 2 -8 -5 -12 -18z"/>
<path d="M5079 123 c-5 -14 -8 -34 -7 -42 2 -9 9 3 15 27 12 47 8 56 -8 15z"/>
<path d="M4984 112 c-4 -20 -11 -29 -20 -25 -18 7 -18 -1 0 -16 12 -10 16 -6
25 25 6 21 8 40 6 43 -3 2 -8 -10 -11 -27z"/>
<path d="M5150 126 c0 -8 -6 -17 -12 -19 -8 -3 -6 -6 5 -6 9 -1 17 -6 17 -12
0 -5 5 -7 10 -4 6 3 10 11 10 16 0 6 -5 7 -12 3 -8 -5 -9 0 -6 14 4 12 2 22
-3 22 -5 0 -9 -6 -9 -14z"/>
<path d="M4726 104 c-4 -14 -5 -28 -3 -31 3 -2 8 8 11 23 4 14 5 28 3 31 -3 2
-8 -8 -11 -23z"/>
<path d="M5251 79 c-6 -18 -11 -37 -11 -42 0 -14 13 0 16 17 1 7 5 23 9 35 10
34 -2 24 -14 -10z"/>
<path d="M5002 80 c0 -14 2 -19 5 -12 2 6 2 18 0 25 -3 6 -5 1 -5 -13z"/>
<path d="M4758 77 c7 -8 8 -18 4 -22 -4 -5 -1 -5 6 -1 17 10 15 23 -4 30 -13
5 -14 4 -6 -7z"/>
<path d="M4807 61 c-4 -17 -3 -21 5 -13 5 5 8 16 6 23 -3 8 -7 3 -11 -10z"/>
<path d="M5181 50 c-6 -18 -6 -30 0 -30 5 0 9 6 9 14 0 8 7 22 16 30 13 14 13
16 1 16 -8 0 -20 -13 -26 -30z"/>
<path d="M4741 54 c0 -11 3 -14 6 -6 3 7 2 16 -1 19 -3 4 -6 -2 -5 -13z"/>
<path d="M4884 43 c-20 -20 -20 -21 -4 -20 10 1 17 4 14 8 -2 4 1 9 7 11 7 2
10 8 8 14 -2 5 -14 -1 -25 -13z"/>
<path d="M4924 55 c-3 -8 -4 -20 -2 -27 3 -7 7 -1 10 15 6 29 1 36 -8 12z"/>
<path d="M4830 45 c0 -8 2 -15 4 -15 2 0 6 7 10 15 3 8 1 15 -4 15 -6 0 -10
-7 -10 -15z"/>
<path d="M5021 48 c0 -9 -4 -25 -7 -35 -5 -17 -5 -17 6 0 6 10 9 25 7 35 -4
15 -5 15 -6 0z"/>
<path d="M5055 50 c-3 -5 -2 -10 4 -10 5 0 13 5 16 10 3 6 2 10 -4 10 -5 0
-13 -4 -16 -10z"/>
<path d="M5082 35 c-6 -14 -7 -25 -2 -25 9 0 25 39 18 46 -3 2 -10 -7 -16 -21z"/>
<path d="M4986 34 c-5 -14 -4 -15 9 -4 17 14 19 20 6 20 -5 0 -12 -7 -15 -16z"/>
<path d="M5108 25 c-3 -13 -1 -22 3 -19 5 3 9 12 9 20 0 9 5 12 12 8 7 -4 8
-3 4 4 -12 19 -23 14 -28 -13z"/>
<path d="M4756 23 c-6 -14 -5 -15 5 -6 7 7 10 15 7 18 -3 3 -9 -2 -12 -12z"/>
<path d="M5201 14 c0 -11 3 -14 6 -6 3 7 2 16 -1 19 -3 4 -6 -2 -5 -13z"/>
<path d="M5290 19 c0 -5 5 -7 10 -4 6 3 10 8 10 11 0 2 -4 4 -10 4 -5 0 -10
-5 -10 -11z"/>
<path d="M5040 9 c0 -5 5 -7 10 -4 6 3 10 8 10 11 0 2 -4 4 -10 4 -5 0 -10 -5
-10 -11z"/>
</g>
</svg>
