<?xml version="1.0" standalone="no"?>
<!DOCTYPE svg PUBLIC "-//W3C//DTD SVG 20010904//EN"
 "http://www.w3.org/TR/2001/REC-SVG-20010904/DTD/svg10.dtd">
<svg version="1.0" xmlns="http://www.w3.org/2000/svg"
 width="128.000000pt" height="128.000000pt" viewBox="0 0 128.000000 128.000000"
 preserveAspectRatio="xMidYMid meet">
<metadata>
Created by potrace 1.14, written by Peter Selinger 2001-2017
</metadata>
<g transform="translate(0.000000,128.000000) scale(0.100000,-0.100000)"
fill="#000000" stroke="none">
<path d="M548 1046 c-47 -95 -93 -179 -101 -188 -9 -9 -51 -21 -96 -27 -44 -7
-88 -13 -98 -15 -10 -2 -40 -7 -68 -10 -42 -6 -79 -11 -130 -19 -32 -5 -9 -36
122 -164 l145 -142 -5 -48 c-3 -26 -13 -91 -22 -143 -9 -52 -18 -106 -20 -119
-16 -93 -17 -111 -5 -111 7 0 54 22 104 49 280 149 260 142 316 113 244 -128
310 -162 320 -162 8 0 10 13 5 43 -4 23 -9 56 -11 72 -2 17 -9 53 -14 80 -11
60 -18 102 -26 173 l-7 53 149 145 c115 112 146 147 134 154 -14 7 -39 12
-150 25 -25 4 -67 10 -95 15 -27 5 -71 11 -96 15 -25 3 -55 14 -65 24 -10 9
-55 92 -99 184 -44 91 -85 168 -91 171 -6 2 -48 -70 -96 -168z"/>
</g>
</svg>
